<mxfile host="65bd71144e" pages="4">
    <diagram id="ln6ierspKXU4iitj8XIt" name="layout">
        <mxGraphModel dx="1066" dy="696" grid="1" gridSize="10" guides="1" tooltips="1" connect="1" arrows="1" fold="1" page="1" pageScale="1" pageWidth="1169" pageHeight="827" math="1" shadow="0">
            <root>
                <mxCell id="0"/>
                <mxCell id="1" parent="0"/>
                <mxCell id="HP4qXSEDYHb3nSJbGcF2-1" value="" style="whiteSpace=wrap;html=1;sketch=1;hachureGap=4;jiggle=1;curveFitting=1;fontFamily=Architects Daughter;fontSource=https%3A%2F%2Ffonts.googleapis.com%2Fcss%3Ffamily%3DArchitects%2BDaughter;fontSize=20;fillColor=none;disableMultiStroke=1;disableMultiStrokeFill=1;" parent="1" vertex="1">
                    <mxGeometry x="110" y="140" width="210" height="140" as="geometry"/>
                </mxCell>
                <mxCell id="HP4qXSEDYHb3nSJbGcF2-2" value="M" style="text;html=1;align=center;verticalAlign=middle;resizable=0;points=[];autosize=1;strokeColor=none;fillColor=none;fontSize=20;fontFamily=Architects Daughter;sketch=1;hachureGap=4;jiggle=2;curveFitting=1;fontSource=https%3A%2F%2Ffonts.googleapis.com%2Fcss%3Ffamily%3DArchitects%2BDaughter;" parent="1" vertex="1">
                    <mxGeometry x="60" y="200" width="40" height="40" as="geometry"/>
                </mxCell>
                <mxCell id="HP4qXSEDYHb3nSJbGcF2-3" value="N" style="text;html=1;align=center;verticalAlign=middle;resizable=0;points=[];autosize=1;strokeColor=none;fillColor=none;fontSize=20;fontFamily=Architects Daughter;sketch=1;hachureGap=4;jiggle=2;curveFitting=1;fontSource=https%3A%2F%2Ffonts.googleapis.com%2Fcss%3Ffamily%3DArchitects%2BDaughter;" parent="1" vertex="1">
                    <mxGeometry x="200" y="290" width="40" height="40" as="geometry"/>
                </mxCell>
                <mxCell id="HP4qXSEDYHb3nSJbGcF2-4" value="" style="edgeStyle=none;orthogonalLoop=1;jettySize=auto;html=1;sketch=1;hachureGap=4;jiggle=1;curveFitting=1;fontFamily=Architects Daughter;fontSource=https%3A%2F%2Ffonts.googleapis.com%2Fcss%3Ffamily%3DArchitects%2BDaughter;fontSize=16;disableMultiStroke=1;" parent="1" edge="1">
                    <mxGeometry width="100" relative="1" as="geometry">
                        <mxPoint x="190" y="175" as="sourcePoint"/>
                        <mxPoint x="190" y="265" as="targetPoint"/>
                        <Array as="points"/>
                    </mxGeometry>
                </mxCell>
                <mxCell id="HP4qXSEDYHb3nSJbGcF2-5" value="&lt;font style=&quot;font-size: 12px;&quot; data-font-src=&quot;https://fonts.googleapis.com/css?family=Architects+Daughter&quot; face=&quot;Comic Sans MS&quot;&gt;column major&lt;/font&gt;" style="text;html=1;align=center;verticalAlign=middle;resizable=0;points=[];autosize=1;strokeColor=none;fillColor=none;fontSize=20;fontFamily=Architects Daughter;sketch=1;hachureGap=4;jiggle=2;curveFitting=1;fontSource=https%3A%2F%2Ffonts.googleapis.com%2Fcss%3Ffamily%3DArchitects%2BDaughter;" parent="1" vertex="1">
                    <mxGeometry x="80" y="90" width="100" height="40" as="geometry"/>
                </mxCell>
                <mxCell id="HP4qXSEDYHb3nSJbGcF2-16" value="&lt;font style=&quot;font-size: 12px;&quot; face=&quot;Comic Sans MS&quot;&gt;stride(1, M): idx(C) - idx(A) = 1, idx(B) - idx(A)=M&lt;/font&gt;" style="text;html=1;align=left;verticalAlign=middle;resizable=0;points=[];autosize=1;strokeColor=none;fillColor=none;fontSize=20;fontFamily=Architects Daughter;fontColor=default;sketch=1;hachureGap=4;jiggle=2;curveFitting=1;fontSource=https%3A%2F%2Ffonts.googleapis.com%2Fcss%3Ffamily%3DArchitects%2BDaughter;" parent="1" vertex="1">
                    <mxGeometry x="110" y="370" width="300" height="40" as="geometry"/>
                </mxCell>
                <mxCell id="HP4qXSEDYHb3nSJbGcF2-18" value="&lt;font style=&quot;font-size: 12px;&quot;&gt;A&lt;/font&gt;" style="whiteSpace=wrap;html=1;sketch=1;hachureGap=4;jiggle=1;disableMultiStroke=1;disableMultiStrokeFill=1;curveFitting=1;strokeColor=default;fontFamily=Comic Sans MS;fontSize=12;fontColor=default;fillColor=none;" parent="1" vertex="1">
                    <mxGeometry x="130" y="160" width="20" height="20" as="geometry"/>
                </mxCell>
                <mxCell id="HP4qXSEDYHb3nSJbGcF2-19" value="B" style="whiteSpace=wrap;html=1;sketch=1;hachureGap=4;jiggle=1;disableMultiStroke=1;disableMultiStrokeFill=1;curveFitting=1;strokeColor=default;fontFamily=Comic Sans MS;fontSize=12;fontColor=default;fillColor=none;" parent="1" vertex="1">
                    <mxGeometry x="150" y="160" width="20" height="20" as="geometry"/>
                </mxCell>
                <mxCell id="HP4qXSEDYHb3nSJbGcF2-20" value="C" style="whiteSpace=wrap;html=1;sketch=1;hachureGap=4;jiggle=1;disableMultiStroke=1;disableMultiStrokeFill=1;curveFitting=1;strokeColor=default;fontFamily=Comic Sans MS;fontSize=12;fontColor=default;fillColor=none;" parent="1" vertex="1">
                    <mxGeometry x="130" y="180" width="20" height="20" as="geometry"/>
                </mxCell>
                <mxCell id="HP4qXSEDYHb3nSJbGcF2-21" value="shape(M,N)" style="text;html=1;align=left;verticalAlign=middle;resizable=0;points=[];autosize=1;strokeColor=none;fillColor=none;fontSize=12;fontFamily=Comic Sans MS;fontColor=default;sketch=1;hachureGap=4;jiggle=2;curveFitting=1;fontSource=https%3A%2F%2Ffonts.googleapis.com%2Fcss%3Ffamily%3DArchitects%2BDaughter;" parent="1" vertex="1">
                    <mxGeometry x="110" y="330" width="90" height="30" as="geometry"/>
                </mxCell>
                <mxCell id="HP4qXSEDYHb3nSJbGcF2-24" value="+" style="text;html=1;align=center;verticalAlign=middle;resizable=0;points=[];autosize=1;strokeColor=none;fillColor=none;fontSize=12;fontFamily=Comic Sans MS;fontColor=default;sketch=1;hachureGap=4;jiggle=2;curveFitting=1;fontSource=https%3A%2F%2Ffonts.googleapis.com%2Fcss%3Ffamily%3DArchitects%2BDaughter;" parent="1" vertex="1">
                    <mxGeometry x="125" y="355" width="30" height="30" as="geometry"/>
                </mxCell>
                <mxCell id="HP4qXSEDYHb3nSJbGcF2-25" value="\(\downarrow\)" style="text;html=1;align=center;verticalAlign=middle;resizable=0;points=[];autosize=1;strokeColor=none;fillColor=none;fontSize=12;fontFamily=Comic Sans MS;fontColor=default;sketch=1;hachureGap=4;jiggle=2;curveFitting=1;fontSource=https%3A%2F%2Ffonts.googleapis.com%2Fcss%3Ffamily%3DArchitects%2BDaughter;" parent="1" vertex="1">
                    <mxGeometry x="85" y="399" width="110" height="30" as="geometry"/>
                </mxCell>
                <mxCell id="HP4qXSEDYHb3nSJbGcF2-26" value="layout out: MxN, column major" style="text;html=1;align=left;verticalAlign=middle;resizable=0;points=[];autosize=1;strokeColor=none;fillColor=none;fontSize=12;fontFamily=Comic Sans MS;fontColor=default;sketch=1;hachureGap=4;jiggle=2;curveFitting=1;fontSource=https%3A%2F%2Ffonts.googleapis.com%2Fcss%3Ffamily%3DArchitects%2BDaughter;" parent="1" vertex="1">
                    <mxGeometry x="110" y="429" width="190" height="30" as="geometry"/>
                </mxCell>
            </root>
        </mxGraphModel>
    </diagram>
    <diagram id="zny-jt6Qr8UgcnP9LZvN" name="layout_alg_complement">
        <mxGraphModel dx="252" dy="512" grid="1" gridSize="20" guides="1" tooltips="1" connect="1" arrows="1" fold="1" page="1" pageScale="1" pageWidth="827" pageHeight="1169" math="0" shadow="0">
            <root>
                <mxCell id="0"/>
                <mxCell id="1" parent="0"/>
                <mxCell id="VxYQiqczOhKyAfGFiUDT-1" value="0" style="whiteSpace=wrap;html=1;fillColor=#f5f5f5;fontColor=#333333;strokeColor=#666666;" vertex="1" parent="1">
                    <mxGeometry x="80" y="200" width="20" height="20" as="geometry"/>
                </mxCell>
                <mxCell id="VxYQiqczOhKyAfGFiUDT-2" value="1" style="whiteSpace=wrap;html=1;fillColor=#f5f5f5;fontColor=#333333;strokeColor=#666666;" vertex="1" parent="1">
                    <mxGeometry x="80" y="220" width="20" height="20" as="geometry"/>
                </mxCell>
                <mxCell id="VxYQiqczOhKyAfGFiUDT-3" value="6" style="whiteSpace=wrap;html=1;fillColor=#f5f5f5;fontColor=#333333;strokeColor=#666666;" vertex="1" parent="1">
                    <mxGeometry x="100" y="200" width="20" height="20" as="geometry"/>
                </mxCell>
                <mxCell id="VxYQiqczOhKyAfGFiUDT-4" value="7" style="whiteSpace=wrap;html=1;fillColor=#f5f5f5;fontColor=#333333;strokeColor=#666666;" vertex="1" parent="1">
                    <mxGeometry x="100" y="220" width="20" height="20" as="geometry"/>
                </mxCell>
                <mxCell id="VxYQiqczOhKyAfGFiUDT-5" value="2" style="whiteSpace=wrap;html=1;fillColor=#dae8fc;strokeColor=#6c8ebf;" vertex="1" parent="1">
                    <mxGeometry x="80" y="240" width="20" height="20" as="geometry"/>
                </mxCell>
                <mxCell id="VxYQiqczOhKyAfGFiUDT-6" value="3" style="whiteSpace=wrap;html=1;fillColor=#dae8fc;strokeColor=#6c8ebf;" vertex="1" parent="1">
                    <mxGeometry x="80" y="260" width="20" height="20" as="geometry"/>
                </mxCell>
                <mxCell id="VxYQiqczOhKyAfGFiUDT-7" value="8" style="whiteSpace=wrap;html=1;fillColor=#dae8fc;strokeColor=#6c8ebf;" vertex="1" parent="1">
                    <mxGeometry x="100" y="240" width="20" height="20" as="geometry"/>
                </mxCell>
                <mxCell id="VxYQiqczOhKyAfGFiUDT-8" value="9" style="whiteSpace=wrap;html=1;fillColor=#dae8fc;strokeColor=#6c8ebf;" vertex="1" parent="1">
                    <mxGeometry x="100" y="260" width="20" height="20" as="geometry"/>
                </mxCell>
                <mxCell id="VxYQiqczOhKyAfGFiUDT-9" value="4" style="whiteSpace=wrap;html=1;fillColor=#f8cecc;strokeColor=#b85450;" vertex="1" parent="1">
                    <mxGeometry x="80" y="280" width="20" height="20" as="geometry"/>
                </mxCell>
                <mxCell id="VxYQiqczOhKyAfGFiUDT-10" value="5" style="whiteSpace=wrap;html=1;fillColor=#f8cecc;strokeColor=#b85450;" vertex="1" parent="1">
                    <mxGeometry x="80" y="300" width="20" height="20" as="geometry"/>
                </mxCell>
                <mxCell id="VxYQiqczOhKyAfGFiUDT-11" value="10" style="whiteSpace=wrap;html=1;fillColor=#f8cecc;strokeColor=#b85450;" vertex="1" parent="1">
                    <mxGeometry x="100" y="280" width="20" height="20" as="geometry"/>
                </mxCell>
                <mxCell id="VxYQiqczOhKyAfGFiUDT-12" value="11" style="whiteSpace=wrap;html=1;fillColor=#f8cecc;strokeColor=#b85450;" vertex="1" parent="1">
                    <mxGeometry x="100" y="300" width="20" height="20" as="geometry"/>
                </mxCell>
                <mxCell id="VxYQiqczOhKyAfGFiUDT-13" value="12" style="whiteSpace=wrap;html=1;fillColor=#fff2cc;strokeColor=#d6b656;" vertex="1" parent="1">
                    <mxGeometry x="120" y="200" width="20" height="20" as="geometry"/>
                </mxCell>
                <mxCell id="VxYQiqczOhKyAfGFiUDT-14" value="13" style="whiteSpace=wrap;html=1;fillColor=#fff2cc;strokeColor=#d6b656;" vertex="1" parent="1">
                    <mxGeometry x="120" y="220" width="20" height="20" as="geometry"/>
                </mxCell>
                <mxCell id="VxYQiqczOhKyAfGFiUDT-15" value="18" style="whiteSpace=wrap;html=1;fillColor=#fff2cc;strokeColor=#d6b656;" vertex="1" parent="1">
                    <mxGeometry x="140" y="200" width="20" height="20" as="geometry"/>
                </mxCell>
                <mxCell id="VxYQiqczOhKyAfGFiUDT-16" value="19" style="whiteSpace=wrap;html=1;fillColor=#fff2cc;strokeColor=#d6b656;" vertex="1" parent="1">
                    <mxGeometry x="140" y="220" width="20" height="20" as="geometry"/>
                </mxCell>
                <mxCell id="VxYQiqczOhKyAfGFiUDT-17" value="14" style="whiteSpace=wrap;html=1;fillColor=#d5e8d4;strokeColor=#82b366;" vertex="1" parent="1">
                    <mxGeometry x="120" y="240" width="20" height="20" as="geometry"/>
                </mxCell>
                <mxCell id="VxYQiqczOhKyAfGFiUDT-18" value="15" style="whiteSpace=wrap;html=1;fillColor=#d5e8d4;strokeColor=#82b366;" vertex="1" parent="1">
                    <mxGeometry x="120" y="260" width="20" height="20" as="geometry"/>
                </mxCell>
                <mxCell id="VxYQiqczOhKyAfGFiUDT-19" value="20" style="whiteSpace=wrap;html=1;fillColor=#d5e8d4;strokeColor=#82b366;" vertex="1" parent="1">
                    <mxGeometry x="140" y="240" width="20" height="20" as="geometry"/>
                </mxCell>
                <mxCell id="VxYQiqczOhKyAfGFiUDT-20" value="21" style="whiteSpace=wrap;html=1;fillColor=#d5e8d4;strokeColor=#82b366;" vertex="1" parent="1">
                    <mxGeometry x="140" y="260" width="20" height="20" as="geometry"/>
                </mxCell>
                <mxCell id="VxYQiqczOhKyAfGFiUDT-21" value="16" style="whiteSpace=wrap;html=1;fillColor=#e1d5e7;strokeColor=#9673a6;" vertex="1" parent="1">
                    <mxGeometry x="120" y="280" width="20" height="20" as="geometry"/>
                </mxCell>
                <mxCell id="VxYQiqczOhKyAfGFiUDT-22" value="17" style="whiteSpace=wrap;html=1;fillColor=#e1d5e7;strokeColor=#9673a6;" vertex="1" parent="1">
                    <mxGeometry x="120" y="300" width="20" height="20" as="geometry"/>
                </mxCell>
                <mxCell id="VxYQiqczOhKyAfGFiUDT-23" value="22" style="whiteSpace=wrap;html=1;fillColor=#e1d5e7;strokeColor=#9673a6;" vertex="1" parent="1">
                    <mxGeometry x="140" y="280" width="20" height="20" as="geometry"/>
                </mxCell>
                <mxCell id="VxYQiqczOhKyAfGFiUDT-24" value="23" style="whiteSpace=wrap;html=1;fillColor=#e1d5e7;strokeColor=#9673a6;" vertex="1" parent="1">
                    <mxGeometry x="140" y="300" width="20" height="20" as="geometry"/>
                </mxCell>
                <mxCell id="VxYQiqczOhKyAfGFiUDT-25" value="0" style="whiteSpace=wrap;html=1;fillColor=#f5f5f5;fontColor=#333333;strokeColor=#666666;" vertex="1" parent="1">
                    <mxGeometry x="80" y="40" width="20" height="20" as="geometry"/>
                </mxCell>
                <mxCell id="VxYQiqczOhKyAfGFiUDT-26" value="1" style="whiteSpace=wrap;html=1;fillColor=#f5f5f5;fontColor=#333333;strokeColor=#666666;" vertex="1" parent="1">
                    <mxGeometry x="80" y="60" width="20" height="20" as="geometry"/>
                </mxCell>
                <mxCell id="VxYQiqczOhKyAfGFiUDT-27" value="6" style="whiteSpace=wrap;html=1;fillColor=#f5f5f5;fontColor=#333333;strokeColor=#666666;" vertex="1" parent="1">
                    <mxGeometry x="100" y="40" width="20" height="20" as="geometry"/>
                </mxCell>
                <mxCell id="VxYQiqczOhKyAfGFiUDT-28" value="7" style="whiteSpace=wrap;html=1;fillColor=#f5f5f5;fontColor=#333333;strokeColor=#666666;" vertex="1" parent="1">
                    <mxGeometry x="100" y="60" width="20" height="20" as="geometry"/>
                </mxCell>
                <mxCell id="VxYQiqczOhKyAfGFiUDT-29" value="layout = (2,2): (1,6)" style="text;html=1;align=left;verticalAlign=middle;resizable=0;points=[];autosize=1;strokeColor=none;fillColor=none;" vertex="1" parent="1">
                    <mxGeometry x="80" width="140" height="40" as="geometry"/>
                </mxCell>
                <mxCell id="VxYQiqczOhKyAfGFiUDT-30" value="target_cosize = 24" style="text;html=1;align=left;verticalAlign=middle;resizable=0;points=[];autosize=1;strokeColor=none;fillColor=none;" vertex="1" parent="1">
                    <mxGeometry x="80" y="80" width="140" height="40" as="geometry"/>
                </mxCell>
                <mxCell id="VxYQiqczOhKyAfGFiUDT-31" value="complement(layout, target_cosize)" style="text;html=1;align=left;verticalAlign=middle;resizable=0;points=[];autosize=1;strokeColor=none;fillColor=none;" vertex="1" parent="1">
                    <mxGeometry x="80" y="160" width="220" height="40" as="geometry"/>
                </mxCell>
            </root>
        </mxGraphModel>
    </diagram>
    <diagram id="kAw2WKBIUaxhGkf7kvNr" name="gemm_nt">
        <mxGraphModel dx="934" dy="1054" grid="1" gridSize="5" guides="1" tooltips="1" connect="1" arrows="1" fold="1" page="1" pageScale="1" pageWidth="1169" pageHeight="827" math="0" shadow="0">
            <root>
                <mxCell id="0"/>
                <mxCell id="1" parent="0"/>
                <mxCell id="3" value="" style="whiteSpace=wrap;html=1;sketch=1;hachureGap=4;jiggle=1;curveFitting=1;fontFamily=Architects Daughter;fontSource=https%3A%2F%2Ffonts.googleapis.com%2Fcss%3Ffamily%3DArchitects%2BDaughter;fontSize=20;disableMultiStroke=1;disableMultiStrokeFill=1;fillColor=none;" parent="1" vertex="1">
                    <mxGeometry x="120" y="280" width="200" height="240" as="geometry"/>
                </mxCell>
                <mxCell id="4" value="" style="whiteSpace=wrap;html=1;sketch=1;hachureGap=4;jiggle=1;disableMultiStroke=1;disableMultiStrokeFill=1;curveFitting=1;strokeColor=default;fontFamily=Architects Daughter;fontSource=https%3A%2F%2Ffonts.googleapis.com%2Fcss%3Ffamily%3DArchitects%2BDaughter;fontSize=20;fontColor=default;fillColor=none;" parent="1" vertex="1">
                    <mxGeometry x="439" y="280" width="240" height="200" as="geometry"/>
                </mxCell>
                <mxCell id="19" value="" style="whiteSpace=wrap;html=1;sketch=1;hachureGap=4;jiggle=1;disableMultiStroke=1;disableMultiStrokeFill=1;curveFitting=1;strokeColor=default;fontFamily=Architects Daughter;fontSource=https%3A%2F%2Ffonts.googleapis.com%2Fcss%3Ffamily%3DArchitects%2BDaughter;fontSize=20;fontColor=default;fillColor=none;" parent="1" vertex="1">
                    <mxGeometry x="800" y="280" width="240" height="240" as="geometry"/>
                </mxCell>
                <mxCell id="21" value="" style="whiteSpace=wrap;html=1;sketch=1;hachureGap=4;jiggle=1;disableMultiStroke=1;disableMultiStrokeFill=1;curveFitting=1;strokeColor=default;fontFamily=Architects Daughter;fontSource=https%3A%2F%2Ffonts.googleapis.com%2Fcss%3Ffamily%3DArchitects%2BDaughter;fontSize=20;fontColor=default;fillColor=none;" parent="1" vertex="1">
                    <mxGeometry x="880" y="360" width="80" height="80" as="geometry"/>
                </mxCell>
                <mxCell id="23" value="" style="whiteSpace=wrap;html=1;sketch=1;hachureGap=4;jiggle=1;disableMultiStroke=1;disableMultiStrokeFill=1;curveFitting=1;strokeColor=default;fontFamily=Architects Daughter;fontSource=https%3A%2F%2Ffonts.googleapis.com%2Fcss%3Ffamily%3DArchitects%2BDaughter;fontSize=20;fontColor=default;fillColor=none;" parent="1" vertex="1">
                    <mxGeometry x="120" y="360" width="4" height="80" as="geometry"/>
                </mxCell>
                <mxCell id="24" value="" style="whiteSpace=wrap;html=1;sketch=1;hachureGap=4;jiggle=1;disableMultiStroke=1;disableMultiStrokeFill=1;curveFitting=1;strokeColor=default;fontFamily=Architects Daughter;fontSource=https%3A%2F%2Ffonts.googleapis.com%2Fcss%3Ffamily%3DArchitects%2BDaughter;fontSize=20;fontColor=default;fillColor=none;" parent="1" vertex="1">
                    <mxGeometry x="519" y="280" width="80" height="5" as="geometry"/>
                </mxCell>
                <mxCell id="25" value="&lt;font style=&quot;font-size: 12px;&quot;&gt;128&lt;/font&gt;" style="text;html=1;align=center;verticalAlign=middle;resizable=0;points=[];autosize=1;strokeColor=none;fillColor=none;fontSize=20;fontFamily=Comic Sans MS;fontColor=default;sketch=1;hachureGap=4;jiggle=2;curveFitting=1;" parent="1" vertex="1">
                    <mxGeometry x="80" y="380" width="40" height="40" as="geometry"/>
                </mxCell>
                <mxCell id="26" value="" style="whiteSpace=wrap;html=1;sketch=1;hachureGap=4;jiggle=1;disableMultiStroke=1;disableMultiStrokeFill=1;curveFitting=1;strokeColor=default;fontFamily=Architects Daughter;fontSource=https%3A%2F%2Ffonts.googleapis.com%2Fcss%3Ffamily%3DArchitects%2BDaughter;fontSize=20;fontColor=default;fillColor=none;" parent="1" vertex="1">
                    <mxGeometry x="125" y="360" width="5" height="80" as="geometry"/>
                </mxCell>
                <mxCell id="27" value="" style="whiteSpace=wrap;html=1;sketch=1;hachureGap=4;jiggle=1;disableMultiStroke=1;disableMultiStrokeFill=1;curveFitting=1;strokeColor=default;fontFamily=Architects Daughter;fontSource=https%3A%2F%2Ffonts.googleapis.com%2Fcss%3Ffamily%3DArchitects%2BDaughter;fontSize=20;fontColor=default;fillColor=none;" parent="1" vertex="1">
                    <mxGeometry x="130" y="360" width="5" height="80" as="geometry"/>
                </mxCell>
                <mxCell id="28" value="" style="whiteSpace=wrap;html=1;sketch=1;hachureGap=4;jiggle=1;disableMultiStroke=1;disableMultiStrokeFill=1;curveFitting=1;strokeColor=default;fontFamily=Architects Daughter;fontSource=https%3A%2F%2Ffonts.googleapis.com%2Fcss%3Ffamily%3DArchitects%2BDaughter;fontSize=20;fontColor=default;fillColor=none;" parent="1" vertex="1">
                    <mxGeometry x="135" y="360" width="5" height="80" as="geometry"/>
                </mxCell>
                <mxCell id="29" value="" style="whiteSpace=wrap;html=1;sketch=1;hachureGap=4;jiggle=1;disableMultiStroke=1;disableMultiStrokeFill=1;curveFitting=1;strokeColor=default;fontFamily=Architects Daughter;fontSource=https%3A%2F%2Ffonts.googleapis.com%2Fcss%3Ffamily%3DArchitects%2BDaughter;fontSize=20;fontColor=default;fillColor=none;" parent="1" vertex="1">
                    <mxGeometry x="140" y="360" width="5" height="80" as="geometry"/>
                </mxCell>
                <mxCell id="30" value="" style="whiteSpace=wrap;html=1;sketch=1;hachureGap=4;jiggle=1;disableMultiStroke=1;disableMultiStrokeFill=1;curveFitting=1;strokeColor=default;fontFamily=Architects Daughter;fontSource=https%3A%2F%2Ffonts.googleapis.com%2Fcss%3Ffamily%3DArchitects%2BDaughter;fontSize=20;fontColor=default;fillColor=none;" parent="1" vertex="1">
                    <mxGeometry x="145" y="360" width="5" height="80" as="geometry"/>
                </mxCell>
                <mxCell id="31" value="" style="whiteSpace=wrap;html=1;sketch=1;hachureGap=4;jiggle=1;disableMultiStroke=1;disableMultiStrokeFill=1;curveFitting=1;strokeColor=default;fontFamily=Architects Daughter;fontSource=https%3A%2F%2Ffonts.googleapis.com%2Fcss%3Ffamily%3DArchitects%2BDaughter;fontSize=20;fontColor=default;fillColor=none;" parent="1" vertex="1">
                    <mxGeometry x="150" y="360" width="5" height="80" as="geometry"/>
                </mxCell>
                <mxCell id="32" value="" style="whiteSpace=wrap;html=1;sketch=1;hachureGap=4;jiggle=1;disableMultiStroke=1;disableMultiStrokeFill=1;curveFitting=1;strokeColor=default;fontFamily=Architects Daughter;fontSource=https%3A%2F%2Ffonts.googleapis.com%2Fcss%3Ffamily%3DArchitects%2BDaughter;fontSize=20;fontColor=default;fillColor=none;" parent="1" vertex="1">
                    <mxGeometry x="155" y="360" width="5" height="80" as="geometry"/>
                </mxCell>
                <mxCell id="33" value="" style="whiteSpace=wrap;html=1;sketch=1;hachureGap=4;jiggle=1;disableMultiStroke=1;disableMultiStrokeFill=1;curveFitting=1;strokeColor=default;fontFamily=Architects Daughter;fontSource=https%3A%2F%2Ffonts.googleapis.com%2Fcss%3Ffamily%3DArchitects%2BDaughter;fontSize=20;fontColor=default;fillColor=none;" parent="1" vertex="1">
                    <mxGeometry x="519" y="285" width="80" height="5" as="geometry"/>
                </mxCell>
                <mxCell id="34" value="" style="whiteSpace=wrap;html=1;sketch=1;hachureGap=4;jiggle=1;disableMultiStroke=1;disableMultiStrokeFill=1;curveFitting=1;strokeColor=default;fontFamily=Architects Daughter;fontSource=https%3A%2F%2Ffonts.googleapis.com%2Fcss%3Ffamily%3DArchitects%2BDaughter;fontSize=20;fontColor=default;fillColor=none;" parent="1" vertex="1">
                    <mxGeometry x="519" y="290" width="80" height="5" as="geometry"/>
                </mxCell>
                <mxCell id="35" value="" style="whiteSpace=wrap;html=1;sketch=1;hachureGap=4;jiggle=1;disableMultiStroke=1;disableMultiStrokeFill=1;curveFitting=1;strokeColor=default;fontFamily=Architects Daughter;fontSource=https%3A%2F%2Ffonts.googleapis.com%2Fcss%3Ffamily%3DArchitects%2BDaughter;fontSize=20;fontColor=default;fillColor=none;" parent="1" vertex="1">
                    <mxGeometry x="519" y="295" width="80" height="5" as="geometry"/>
                </mxCell>
                <mxCell id="36" value="" style="whiteSpace=wrap;html=1;sketch=1;hachureGap=4;jiggle=1;disableMultiStroke=1;disableMultiStrokeFill=1;curveFitting=1;strokeColor=default;fontFamily=Architects Daughter;fontSource=https%3A%2F%2Ffonts.googleapis.com%2Fcss%3Ffamily%3DArchitects%2BDaughter;fontSize=20;fontColor=default;fillColor=none;" parent="1" vertex="1">
                    <mxGeometry x="519" y="300" width="80" height="5" as="geometry"/>
                </mxCell>
                <mxCell id="37" value="" style="whiteSpace=wrap;html=1;sketch=1;hachureGap=4;jiggle=1;disableMultiStroke=1;disableMultiStrokeFill=1;curveFitting=1;strokeColor=default;fontFamily=Architects Daughter;fontSource=https%3A%2F%2Ffonts.googleapis.com%2Fcss%3Ffamily%3DArchitects%2BDaughter;fontSize=20;fontColor=default;fillColor=none;" parent="1" vertex="1">
                    <mxGeometry x="519" y="305" width="80" height="5" as="geometry"/>
                </mxCell>
                <mxCell id="38" value="" style="whiteSpace=wrap;html=1;sketch=1;hachureGap=4;jiggle=1;disableMultiStroke=1;disableMultiStrokeFill=1;curveFitting=1;strokeColor=default;fontFamily=Architects Daughter;fontSource=https%3A%2F%2Ffonts.googleapis.com%2Fcss%3Ffamily%3DArchitects%2BDaughter;fontSize=20;fontColor=default;fillColor=none;" parent="1" vertex="1">
                    <mxGeometry x="519" y="310" width="80" height="5" as="geometry"/>
                </mxCell>
                <mxCell id="39" value="" style="whiteSpace=wrap;html=1;sketch=1;hachureGap=4;jiggle=1;disableMultiStroke=1;disableMultiStrokeFill=1;curveFitting=1;strokeColor=default;fontFamily=Architects Daughter;fontSource=https%3A%2F%2Ffonts.googleapis.com%2Fcss%3Ffamily%3DArchitects%2BDaughter;fontSize=20;fontColor=default;fillColor=none;" parent="1" vertex="1">
                    <mxGeometry x="519" y="315" width="80" height="5" as="geometry"/>
                </mxCell>
                <mxCell id="41" value="8" style="text;html=1;align=center;verticalAlign=middle;resizable=0;points=[];autosize=1;strokeColor=none;fillColor=none;fontSize=12;fontFamily=Comic Sans MS;fontColor=default;sketch=1;hachureGap=4;jiggle=2;curveFitting=1;" parent="1" vertex="1">
                    <mxGeometry x="125.5" y="330" width="30" height="30" as="geometry"/>
                </mxCell>
                <mxCell id="42" value="" style="whiteSpace=wrap;html=1;sketch=1;hachureGap=2;jiggle=1;disableMultiStroke=1;disableMultiStrokeFill=1;curveFitting=1;strokeColor=#007FFF;fontFamily=Architects Daughter;fontSource=https%3A%2F%2Ffonts.googleapis.com%2Fcss%3Ffamily%3DArchitects%2BDaughter;fontSize=12;fillColor=#007FFF;rounded=0;shadow=0;" parent="1" vertex="1">
                    <mxGeometry x="120" y="360" width="40" height="20" as="geometry"/>
                </mxCell>
                <mxCell id="43" value="&lt;font color=&quot;#007fff&quot;&gt;sA = (32,8)&lt;/font&gt;" style="text;html=1;align=center;verticalAlign=middle;resizable=0;points=[];autosize=1;strokeColor=none;fillColor=none;fontSize=12;fontFamily=Comic Sans MS;fontColor=default;sketch=1;hachureGap=4;jiggle=2;curveFitting=1;" parent="1" vertex="1">
                    <mxGeometry x="163" y="355" width="85" height="30" as="geometry"/>
                </mxCell>
                <mxCell id="44" value="" style="whiteSpace=wrap;html=1;sketch=1;hachureGap=4;jiggle=1;disableMultiStroke=1;disableMultiStrokeFill=1;curveFitting=1;strokeColor=#007FFF;fontFamily=Architects Daughter;fontSource=https%3A%2F%2Ffonts.googleapis.com%2Fcss%3Ffamily%3DArchitects%2BDaughter;fontSize=20;fontColor=#ffffff;fillColor=#007FFF;" parent="1" vertex="1">
                    <mxGeometry x="519" y="280" width="21" height="40" as="geometry"/>
                </mxCell>
                <mxCell id="46" value="&lt;font style=&quot;font-size: 12px;&quot;&gt;128&lt;/font&gt;" style="text;html=1;align=center;verticalAlign=middle;resizable=0;points=[];autosize=1;strokeColor=none;fillColor=none;fontSize=20;fontFamily=Comic Sans MS;fontColor=default;sketch=1;hachureGap=4;jiggle=2;curveFitting=1;" parent="1" vertex="1">
                    <mxGeometry x="539" y="315" width="40" height="40" as="geometry"/>
                </mxCell>
                <mxCell id="47" value="8" style="text;html=1;align=center;verticalAlign=middle;resizable=0;points=[];autosize=1;strokeColor=none;fillColor=none;fontSize=12;fontFamily=Comic Sans MS;fontColor=default;sketch=1;hachureGap=4;jiggle=2;curveFitting=1;" parent="1" vertex="1">
                    <mxGeometry x="489" y="282.5" width="30" height="30" as="geometry"/>
                </mxCell>
                <mxCell id="48" value="" style="edgeStyle=none;orthogonalLoop=1;jettySize=auto;html=1;sketch=1;hachureGap=4;jiggle=1;curveFitting=1;fontFamily=Architects Daughter;fontSource=https%3A%2F%2Ffonts.googleapis.com%2Fcss%3Ffamily%3DArchitects%2BDaughter;fontSize=16;disableMultiStroke=1;" parent="1" edge="1">
                    <mxGeometry width="100" relative="1" as="geometry">
                        <mxPoint x="75" y="282.5" as="sourcePoint"/>
                        <mxPoint x="75" y="517.5" as="targetPoint"/>
                        <Array as="points"/>
                    </mxGeometry>
                </mxCell>
                <mxCell id="49" value="" style="edgeStyle=none;orthogonalLoop=1;jettySize=auto;html=1;rounded=1;labelBackgroundColor=default;sketch=1;hachureGap=4;jiggle=1;disableMultiStroke=1;curveFitting=1;strokeColor=default;fontFamily=Architects Daughter;fontSource=https%3A%2F%2Ffonts.googleapis.com%2Fcss%3Ffamily%3DArchitects%2BDaughter;fontSize=16;fontColor=default;endArrow=classic;shape=connector;" parent="1" edge="1">
                    <mxGeometry width="100" relative="1" as="geometry">
                        <mxPoint x="449" y="510" as="sourcePoint"/>
                        <mxPoint x="669" y="510" as="targetPoint"/>
                        <Array as="points"/>
                    </mxGeometry>
                </mxCell>
                <mxCell id="50" value="M" style="text;html=1;align=center;verticalAlign=middle;resizable=0;points=[];autosize=1;strokeColor=none;fillColor=none;fontSize=20;fontFamily=Comic Sans MS;sketch=1;hachureGap=4;jiggle=2;curveFitting=1;" parent="1" vertex="1">
                    <mxGeometry x="25" y="365" width="40" height="40" as="geometry"/>
                </mxCell>
                <mxCell id="51" value="K" style="text;html=1;align=center;verticalAlign=middle;resizable=0;points=[];autosize=1;strokeColor=none;fillColor=none;fontSize=20;fontFamily=Comic Sans MS;sketch=1;hachureGap=4;jiggle=2;curveFitting=1;" parent="1" vertex="1">
                    <mxGeometry x="200" y="235" width="35" height="40" as="geometry"/>
                </mxCell>
                <mxCell id="52" value="N" style="text;html=1;align=center;verticalAlign=middle;resizable=0;points=[];autosize=1;strokeColor=none;fillColor=none;fontSize=20;fontFamily=Comic Sans MS;sketch=1;hachureGap=4;jiggle=2;curveFitting=1;" parent="1" vertex="1">
                    <mxGeometry x="547" y="235" width="35" height="40" as="geometry"/>
                </mxCell>
                <mxCell id="54" value="K" style="text;html=1;align=center;verticalAlign=middle;resizable=0;points=[];autosize=1;strokeColor=none;fillColor=none;fontSize=20;fontFamily=Comic Sans MS;sketch=1;hachureGap=4;jiggle=2;curveFitting=1;" parent="1" vertex="1">
                    <mxGeometry x="399" y="365" width="35" height="40" as="geometry"/>
                </mxCell>
                <mxCell id="56" value="&lt;font face=&quot;Comic Sans MS&quot; style=&quot;font-size: 20px;&quot;&gt;N: column major&lt;br&gt;T: row major&lt;/font&gt;" style="text;html=1;align=left;verticalAlign=middle;resizable=0;points=[];autosize=1;strokeColor=none;fillColor=none;fontSize=20;fontFamily=Architects Daughter;sketch=1;hachureGap=4;jiggle=2;curveFitting=1;fontSource=https%3A%2F%2Ffonts.googleapis.com%2Fcss%3Ffamily%3DArchitects%2BDaughter;" parent="1" vertex="1">
                    <mxGeometry x="45" y="28" width="170" height="70" as="geometry"/>
                </mxCell>
                <mxCell id="57" value="&lt;font face=&quot;Comic Sans MS&quot; style=&quot;font-size: 12px;&quot;&gt;&lt;font style=&quot;font-size: 12px;&quot;&gt;&lt;font style=&quot;font-size: 12px;&quot;&gt;GEMM modes. NN, NT, TN and TT&lt;/font&gt;&lt;font style=&quot;font-size: 12px;&quot;&gt;:&amp;nbsp;&lt;/font&gt;&lt;/font&gt;&lt;a style=&quot;&quot; href=&quot;https://www.math.utah.edu/software/lapack/lapack-blas/sgemm.html&quot;&gt;&lt;font style=&quot;font-size: 12px;&quot;&gt;lapack-blas/sgemm.html (utah.edu)&lt;/font&gt;&lt;/a&gt;&lt;/font&gt;&lt;font face=&quot;Comic Sans MS&quot;&gt;&lt;font style=&quot;font-size: 12px;&quot;&gt;&lt;br&gt;&lt;/font&gt;&lt;/font&gt;" style="text;html=1;align=left;verticalAlign=middle;resizable=0;points=[];autosize=1;strokeColor=none;fillColor=none;fontSize=20;fontFamily=Architects Daughter;sketch=1;hachureGap=4;jiggle=2;curveFitting=1;fontSource=https%3A%2F%2Ffonts.googleapis.com%2Fcss%3Ffamily%3DArchitects%2BDaughter;" parent="1" vertex="1">
                    <mxGeometry x="35" y="95" width="415" height="40" as="geometry"/>
                </mxCell>
                <mxCell id="60" value="A" style="text;html=1;align=center;verticalAlign=middle;resizable=0;points=[];autosize=1;strokeColor=none;fillColor=none;fontSize=20;fontFamily=Comic Sans MS;fontColor=default;sketch=1;hachureGap=4;jiggle=2;curveFitting=1;fontSource=https%3A%2F%2Ffonts.googleapis.com%2Fcss%3Ffamily%3DArchitects%2BDaughter;" parent="1" vertex="1">
                    <mxGeometry x="198" y="550" width="35" height="40" as="geometry"/>
                </mxCell>
                <mxCell id="61" value="B^T" style="text;html=1;align=center;verticalAlign=middle;resizable=0;points=[];autosize=1;strokeColor=none;fillColor=none;fontSize=20;fontFamily=Comic Sans MS;fontColor=default;sketch=1;hachureGap=4;jiggle=2;curveFitting=1;fontSource=https%3A%2F%2Ffonts.googleapis.com%2Fcss%3Ffamily%3DArchitects%2BDaughter;" parent="1" vertex="1">
                    <mxGeometry x="527" y="550" width="60" height="40" as="geometry"/>
                </mxCell>
                <mxCell id="nj-6XAEKnbdX0I4cmbk7-63" value="&lt;p style=&quot;line-height: 150%;&quot;&gt;Note: ldA = M, ldB = N&lt;/p&gt;&lt;p style=&quot;line-height: 150%;&quot;&gt;A is column major -&amp;gt; shape(M, K) + stride(1,M)&lt;br&gt;B^T is row major -&amp;gt; shape(N, K) + stride(1, N)&lt;/p&gt;" style="text;html=1;align=left;verticalAlign=middle;resizable=0;points=[];autosize=1;strokeColor=none;fillColor=none;fontSize=12;fontFamily=Comic Sans MS;fontColor=default;sketch=1;hachureGap=4;jiggle=1;disableMultiStroke=1;disableMultiStrokeFill=1;curveFitting=1;" parent="1" vertex="1">
                    <mxGeometry x="75" y="660" width="275" height="105" as="geometry"/>
                </mxCell>
                <mxCell id="S4OHZqOow0HifNHYg64t-63" value="" style="whiteSpace=wrap;html=1;sketch=1;hachureGap=4;jiggle=1;disableMultiStroke=1;disableMultiStrokeFill=1;curveFitting=1;strokeColor=default;fontFamily=Architects Daughter;fontSource=https%3A%2F%2Ffonts.googleapis.com%2Fcss%3Ffamily%3DArchitects%2BDaughter;fontSize=20;fontColor=default;fillColor=none;rotation=90;" vertex="1" parent="1">
                    <mxGeometry x="439" y="680" width="240" height="200" as="geometry"/>
                </mxCell>
                <mxCell id="S4OHZqOow0HifNHYg64t-73" value="&lt;font style=&quot;font-size: 12px;&quot;&gt;128&lt;/font&gt;" style="text;html=1;align=center;verticalAlign=middle;resizable=0;points=[];autosize=1;strokeColor=none;fillColor=none;fontSize=20;fontFamily=Comic Sans MS;fontColor=default;sketch=1;hachureGap=4;jiggle=2;curveFitting=1;" vertex="1" parent="1">
                    <mxGeometry x="419" y="760" width="40" height="40" as="geometry"/>
                </mxCell>
                <mxCell id="S4OHZqOow0HifNHYg64t-74" value="8" style="text;html=1;align=center;verticalAlign=middle;resizable=0;points=[];autosize=1;strokeColor=none;fillColor=none;fontSize=12;fontFamily=Comic Sans MS;fontColor=default;sketch=1;hachureGap=4;jiggle=2;curveFitting=1;" vertex="1" parent="1">
                    <mxGeometry x="464" y="717.5" width="30" height="30" as="geometry"/>
                </mxCell>
                <mxCell id="S4OHZqOow0HifNHYg64t-75" value="" style="edgeStyle=none;orthogonalLoop=1;jettySize=auto;html=1;rounded=1;labelBackgroundColor=default;sketch=1;hachureGap=4;jiggle=1;disableMultiStroke=1;curveFitting=1;strokeColor=default;fontFamily=Architects Daughter;fontSource=https%3A%2F%2Ffonts.googleapis.com%2Fcss%3Ffamily%3DArchitects%2BDaughter;fontSize=16;fontColor=default;endArrow=classic;shape=connector;" edge="1" parent="1">
                    <mxGeometry width="100" relative="1" as="geometry">
                        <mxPoint x="400" y="660" as="sourcePoint"/>
                        <mxPoint x="400" y="900" as="targetPoint"/>
                        <Array as="points"/>
                    </mxGeometry>
                </mxCell>
                <mxCell id="S4OHZqOow0HifNHYg64t-76" value="K" style="text;html=1;align=center;verticalAlign=middle;resizable=0;points=[];autosize=1;strokeColor=none;fillColor=none;fontSize=20;fontFamily=Comic Sans MS;sketch=1;hachureGap=4;jiggle=2;curveFitting=1;" vertex="1" parent="1">
                    <mxGeometry x="541.5" y="620" width="35" height="40" as="geometry"/>
                </mxCell>
                <mxCell id="S4OHZqOow0HifNHYg64t-77" value="B (in memory?)" style="text;html=1;align=center;verticalAlign=middle;resizable=0;points=[];autosize=1;strokeColor=none;fillColor=none;fontSize=20;fontFamily=Comic Sans MS;fontColor=default;sketch=1;hachureGap=4;jiggle=2;curveFitting=1;fontSource=https%3A%2F%2Ffonts.googleapis.com%2Fcss%3Ffamily%3DArchitects%2BDaughter;" vertex="1" parent="1">
                    <mxGeometry x="475" y="905" width="160" height="40" as="geometry"/>
                </mxCell>
                <mxCell id="S4OHZqOow0HifNHYg64t-79" value="N" style="text;html=1;align=center;verticalAlign=middle;resizable=0;points=[];autosize=1;strokeColor=none;fillColor=none;fontSize=20;fontFamily=Comic Sans MS;sketch=1;hachureGap=4;jiggle=2;curveFitting=1;" vertex="1" parent="1">
                    <mxGeometry x="350" y="760" width="35" height="40" as="geometry"/>
                </mxCell>
                <mxCell id="S4OHZqOow0HifNHYg64t-80" value="&lt;font style=&quot;font-size: 20px;&quot;&gt;M&lt;/font&gt;" style="text;html=1;align=center;verticalAlign=middle;resizable=0;points=[];autosize=1;strokeColor=none;fillColor=none;fontSize=12;fontFamily=Comic Sans MS;" vertex="1" parent="1">
                    <mxGeometry x="760" y="365" width="40" height="40" as="geometry"/>
                </mxCell>
                <mxCell id="S4OHZqOow0HifNHYg64t-82" value="N" style="text;html=1;align=center;verticalAlign=middle;resizable=0;points=[];autosize=1;strokeColor=none;fillColor=none;fontSize=20;fontFamily=Comic Sans MS;" vertex="1" parent="1">
                    <mxGeometry x="902.5" y="240" width="35" height="40" as="geometry"/>
                </mxCell>
                <mxCell id="S4OHZqOow0HifNHYg64t-83" value="" style="whiteSpace=wrap;html=1;sketch=1;hachureGap=4;jiggle=1;disableMultiStroke=1;disableMultiStrokeFill=1;curveFitting=1;strokeColor=default;fontFamily=Architects Daughter;fontSource=https%3A%2F%2Ffonts.googleapis.com%2Fcss%3Ffamily%3DArchitects%2BDaughter;fontSize=20;fontColor=default;fillColor=none;" vertex="1" parent="1">
                    <mxGeometry x="459" y="740" width="4" height="80" as="geometry"/>
                </mxCell>
                <mxCell id="S4OHZqOow0HifNHYg64t-84" value="" style="whiteSpace=wrap;html=1;sketch=1;hachureGap=4;jiggle=1;disableMultiStroke=1;disableMultiStrokeFill=1;curveFitting=1;strokeColor=default;fontFamily=Architects Daughter;fontSource=https%3A%2F%2Ffonts.googleapis.com%2Fcss%3Ffamily%3DArchitects%2BDaughter;fontSize=20;fontColor=default;fillColor=none;" vertex="1" parent="1">
                    <mxGeometry x="464" y="740" width="5" height="80" as="geometry"/>
                </mxCell>
                <mxCell id="S4OHZqOow0HifNHYg64t-85" value="" style="whiteSpace=wrap;html=1;sketch=1;hachureGap=4;jiggle=1;disableMultiStroke=1;disableMultiStrokeFill=1;curveFitting=1;strokeColor=default;fontFamily=Architects Daughter;fontSource=https%3A%2F%2Ffonts.googleapis.com%2Fcss%3Ffamily%3DArchitects%2BDaughter;fontSize=20;fontColor=default;fillColor=none;" vertex="1" parent="1">
                    <mxGeometry x="469" y="740" width="5" height="80" as="geometry"/>
                </mxCell>
                <mxCell id="S4OHZqOow0HifNHYg64t-86" value="" style="whiteSpace=wrap;html=1;sketch=1;hachureGap=4;jiggle=1;disableMultiStroke=1;disableMultiStrokeFill=1;curveFitting=1;strokeColor=default;fontFamily=Architects Daughter;fontSource=https%3A%2F%2Ffonts.googleapis.com%2Fcss%3Ffamily%3DArchitects%2BDaughter;fontSize=20;fontColor=default;fillColor=none;" vertex="1" parent="1">
                    <mxGeometry x="474" y="740" width="5" height="80" as="geometry"/>
                </mxCell>
                <mxCell id="S4OHZqOow0HifNHYg64t-87" value="" style="whiteSpace=wrap;html=1;sketch=1;hachureGap=4;jiggle=1;disableMultiStroke=1;disableMultiStrokeFill=1;curveFitting=1;strokeColor=default;fontFamily=Architects Daughter;fontSource=https%3A%2F%2Ffonts.googleapis.com%2Fcss%3Ffamily%3DArchitects%2BDaughter;fontSize=20;fontColor=default;fillColor=none;" vertex="1" parent="1">
                    <mxGeometry x="484" y="740" width="5" height="80" as="geometry"/>
                </mxCell>
                <mxCell id="S4OHZqOow0HifNHYg64t-88" value="" style="whiteSpace=wrap;html=1;sketch=1;hachureGap=4;jiggle=1;disableMultiStroke=1;disableMultiStrokeFill=1;curveFitting=1;strokeColor=default;fontFamily=Architects Daughter;fontSource=https%3A%2F%2Ffonts.googleapis.com%2Fcss%3Ffamily%3DArchitects%2BDaughter;fontSize=20;fontColor=default;fillColor=none;" vertex="1" parent="1">
                    <mxGeometry x="479" y="740" width="5" height="80" as="geometry"/>
                </mxCell>
                <mxCell id="S4OHZqOow0HifNHYg64t-89" value="" style="whiteSpace=wrap;html=1;sketch=1;hachureGap=4;jiggle=1;disableMultiStroke=1;disableMultiStrokeFill=1;curveFitting=1;strokeColor=default;fontFamily=Architects Daughter;fontSource=https%3A%2F%2Ffonts.googleapis.com%2Fcss%3Ffamily%3DArchitects%2BDaughter;fontSize=20;fontColor=default;fillColor=none;" vertex="1" parent="1">
                    <mxGeometry x="489" y="740" width="5" height="80" as="geometry"/>
                </mxCell>
                <mxCell id="S4OHZqOow0HifNHYg64t-90" value="" style="whiteSpace=wrap;html=1;sketch=1;hachureGap=4;jiggle=1;disableMultiStroke=1;disableMultiStrokeFill=1;curveFitting=1;strokeColor=default;fontFamily=Architects Daughter;fontSource=https%3A%2F%2Ffonts.googleapis.com%2Fcss%3Ffamily%3DArchitects%2BDaughter;fontSize=20;fontColor=default;fillColor=none;" vertex="1" parent="1">
                    <mxGeometry x="494" y="740" width="5" height="80" as="geometry"/>
                </mxCell>
                <mxCell id="S4OHZqOow0HifNHYg64t-91" value="" style="whiteSpace=wrap;html=1;sketch=1;hachureGap=2;jiggle=1;disableMultiStroke=1;disableMultiStrokeFill=1;curveFitting=1;strokeColor=#007FFF;fontFamily=Architects Daughter;fontSource=https%3A%2F%2Ffonts.googleapis.com%2Fcss%3Ffamily%3DArchitects%2BDaughter;fontSize=12;fillColor=#007FFF;rounded=0;shadow=0;fontColor=#ffffff;" vertex="1" parent="1">
                    <mxGeometry x="459" y="740" width="41" height="20" as="geometry"/>
                </mxCell>
                <mxCell id="S4OHZqOow0HifNHYg64t-93" value="&lt;font style=&quot;font-size: 12px;&quot;&gt;128&lt;/font&gt;" style="text;html=1;align=center;verticalAlign=middle;resizable=0;points=[];autosize=1;strokeColor=none;fillColor=none;fontSize=20;fontFamily=Comic Sans MS;" vertex="1" parent="1">
                    <mxGeometry x="840" y="380" width="40" height="40" as="geometry"/>
                </mxCell>
                <mxCell id="S4OHZqOow0HifNHYg64t-94" value="&lt;font style=&quot;font-size: 12px;&quot;&gt;128&lt;/font&gt;" style="text;html=1;align=center;verticalAlign=middle;resizable=0;points=[];autosize=1;strokeColor=none;fillColor=none;fontSize=20;fontFamily=Comic Sans MS;" vertex="1" parent="1">
                    <mxGeometry x="900.5" y="325" width="40" height="40" as="geometry"/>
                </mxCell>
                <mxCell id="S4OHZqOow0HifNHYg64t-95" value="sB = (32, 8)" style="text;html=1;align=center;verticalAlign=middle;resizable=0;points=[];autosize=1;strokeColor=none;fillColor=none;fontSize=12;fontFamily=Comic Sans MS;fontColor=#007FFF;" vertex="1" parent="1">
                    <mxGeometry x="496.5" y="735" width="85" height="30" as="geometry"/>
                </mxCell>
                <mxCell id="S4OHZqOow0HifNHYg64t-96" value="sB = (8, 32)" style="text;html=1;align=center;verticalAlign=middle;resizable=0;points=[];autosize=1;strokeColor=none;fillColor=none;fontSize=12;fontFamily=Comic Sans MS;fontColor=#007FFF;" vertex="1" parent="1">
                    <mxGeometry x="463" y="252.5" width="85" height="30" as="geometry"/>
                </mxCell>
                <mxCell id="S4OHZqOow0HifNHYg64t-97" value="sC = (16, 16)?" style="text;html=1;align=center;verticalAlign=middle;resizable=0;points=[];autosize=1;strokeColor=none;fillColor=none;fontSize=12;fontFamily=Comic Sans MS;fontColor=#007FFF;" vertex="1" parent="1">
                    <mxGeometry x="793" y="605" width="95" height="30" as="geometry"/>
                </mxCell>
                <mxCell id="S4OHZqOow0HifNHYg64t-98" value="dA = stride(1,M)&lt;br&gt;dB = stride(1,N)&lt;br&gt;dc = stride(1, M)&lt;br&gt;cta_tiler = shape(128, 128, 8)" style="text;html=1;align=left;verticalAlign=middle;resizable=0;points=[];autosize=1;strokeColor=none;fillColor=none;fontSize=12;fontFamily=Comic Sans MS;fontColor=#007FFF;" vertex="1" parent="1">
                    <mxGeometry x="608" y="105" width="185" height="75" as="geometry"/>
                </mxCell>
            </root>
        </mxGraphModel>
    </diagram>
    <diagram id="xmmEhrYrRo-bvghUtOlv" name="sgemm_1.cu">
        <mxGraphModel dx="1647" dy="535" grid="1" gridSize="10" guides="1" tooltips="1" connect="1" arrows="1" fold="1" page="1" pageScale="1" pageWidth="827" pageHeight="1169" math="0" shadow="0">
            <root>
                <mxCell id="0"/>
                <mxCell id="1" parent="0"/>
                <mxCell id="pXP7UlBF3ChyJRR3a8Z4-10" value="" style="whiteSpace=wrap;html=1;fillColor=none;" parent="1" vertex="1">
                    <mxGeometry x="80" y="330" width="160" height="120" as="geometry"/>
                </mxCell>
                <mxCell id="xiHh4L90Lh8i9n4L2yUY-1" value="&lt;font data-font-src=&quot;https://fonts.googleapis.com/css?family=Martian+Mono&quot; face=&quot;Martian Mono&quot;&gt;gemm_nt&lt;/font&gt;" style="text;html=1;align=center;verticalAlign=middle;resizable=0;points=[];autosize=1;strokeColor=none;fillColor=none;fontFamily=Architects Daughter;fontSource=https%3A%2F%2Ffonts.googleapis.com%2Fcss%3Ffamily%3DArchitects%2BDaughter;fontSize=12;fontColor=default;" parent="1" vertex="1">
                    <mxGeometry x="20" y="20" width="80" height="30" as="geometry"/>
                </mxCell>
                <mxCell id="3HCuE4llYUpl9eU9PBKh-3" value="layout A = (M, K): (1, M)&lt;div style=&quot;line-height: 150%;&quot;&gt;layout B = (N, K): (1, N)&lt;/div&gt;&lt;div style=&quot;line-height: 150%;&quot;&gt;layout C = (M, N): (1, M)&lt;/div&gt;" style="text;html=1;align=left;verticalAlign=middle;resizable=0;points=[];autosize=1;strokeColor=none;fillColor=none;" parent="1" vertex="1">
                    <mxGeometry x="20" y="40" width="150" height="60" as="geometry"/>
                </mxCell>
                <mxCell id="pXP7UlBF3ChyJRR3a8Z4-1" value="" style="whiteSpace=wrap;html=1;fillColor=none;" parent="1" vertex="1">
                    <mxGeometry x="80" y="160" width="160" height="120" as="geometry"/>
                </mxCell>
                <mxCell id="pXP7UlBF3ChyJRR3a8Z4-2" value="mA, (M, K): (1, M)" style="text;html=1;align=center;verticalAlign=middle;resizable=0;points=[];autosize=1;strokeColor=none;fillColor=none;" parent="1" vertex="1">
                    <mxGeometry x="100" y="280" width="120" height="30" as="geometry"/>
                </mxCell>
                <mxCell id="pXP7UlBF3ChyJRR3a8Z4-6" value="" style="whiteSpace=wrap;html=1;fillColor=#dae8fc;strokeColor=#6c8ebf;opacity=50;" parent="1" vertex="1">
                    <mxGeometry x="80" y="350" width="10" height="20" as="geometry"/>
                </mxCell>
                <mxCell id="pXP7UlBF3ChyJRR3a8Z4-8" value="" style="whiteSpace=wrap;html=1;fillColor=#dae8fc;strokeColor=#6c8ebf;opacity=50;" parent="1" vertex="1">
                    <mxGeometry x="80" y="330" width="10" height="20" as="geometry"/>
                </mxCell>
                <mxCell id="pXP7UlBF3ChyJRR3a8Z4-11" value="mA, (M, K): (1, M)" style="text;html=1;align=center;verticalAlign=middle;resizable=0;points=[];autosize=1;strokeColor=none;fillColor=none;" parent="1" vertex="1">
                    <mxGeometry x="100" y="450" width="120" height="30" as="geometry"/>
                </mxCell>
                <mxCell id="pXP7UlBF3ChyJRR3a8Z4-13" value="" style="whiteSpace=wrap;html=1;fillColor=#dae8fc;strokeColor=#6c8ebf;opacity=50;" parent="1" vertex="1">
                    <mxGeometry x="80" y="370" width="10" height="20" as="geometry"/>
                </mxCell>
                <mxCell id="pXP7UlBF3ChyJRR3a8Z4-16" value="&lt;font style=&quot;font-size: 8px;&quot;&gt;select&amp;lt;0,2&amp;gt;(cta_tiler)=(128, 8)&lt;/font&gt;" style="text;html=1;align=center;verticalAlign=middle;resizable=0;points=[];autosize=1;strokeColor=none;fillColor=none;" parent="1" vertex="1">
                    <mxGeometry x="80" y="490" width="130" height="30" as="geometry"/>
                </mxCell>
                <mxCell id="pXP7UlBF3ChyJRR3a8Z4-17" value="" style="whiteSpace=wrap;html=1;fillColor=#dae8fc;strokeColor=#6c8ebf;opacity=50;" parent="1" vertex="1">
                    <mxGeometry x="90" y="330" width="10" height="20" as="geometry"/>
                </mxCell>
                <mxCell id="pXP7UlBF3ChyJRR3a8Z4-18" value="" style="whiteSpace=wrap;html=1;fillColor=#dae8fc;strokeColor=#6c8ebf;opacity=50;" parent="1" vertex="1">
                    <mxGeometry x="100" y="330" width="10" height="20" as="geometry"/>
                </mxCell>
                <mxCell id="pXP7UlBF3ChyJRR3a8Z4-19" value="" style="whiteSpace=wrap;html=1;fillColor=#dae8fc;strokeColor=#6c8ebf;opacity=50;" parent="1" vertex="1">
                    <mxGeometry x="90" y="350" width="10" height="20" as="geometry"/>
                </mxCell>
                <mxCell id="pXP7UlBF3ChyJRR3a8Z4-20" value="select&amp;lt;0,2&amp;gt;(cta_coord)=(blockIdx.x, _)" style="text;html=1;align=center;verticalAlign=middle;resizable=0;points=[];autosize=1;strokeColor=none;fillColor=none;fontSize=8;" parent="1" vertex="1">
                    <mxGeometry x="80" y="520" width="160" height="20" as="geometry"/>
                </mxCell>
                <mxCell id="pXP7UlBF3ChyJRR3a8Z4-21" value="" style="whiteSpace=wrap;html=1;fillColor=#dae8fc;strokeColor=#6c8ebf;opacity=50;" parent="1" vertex="1">
                    <mxGeometry x="80" y="409.5" width="10" height="20" as="geometry"/>
                </mxCell>
                <mxCell id="pXP7UlBF3ChyJRR3a8Z4-22" value="" style="whiteSpace=wrap;html=1;fillColor=#dae8fc;strokeColor=#6c8ebf;opacity=50;" parent="1" vertex="1">
                    <mxGeometry x="90" y="409.5" width="10" height="20" as="geometry"/>
                </mxCell>
                <mxCell id="pXP7UlBF3ChyJRR3a8Z4-23" value="" style="whiteSpace=wrap;html=1;fillColor=#dae8fc;strokeColor=#6c8ebf;opacity=50;" parent="1" vertex="1">
                    <mxGeometry x="100" y="409.5" width="10" height="20" as="geometry"/>
                </mxCell>
                <mxCell id="pXP7UlBF3ChyJRR3a8Z4-24" value="" style="whiteSpace=wrap;html=1;fillColor=#dae8fc;strokeColor=#6c8ebf;opacity=50;" parent="1" vertex="1">
                    <mxGeometry x="110" y="409.5" width="10" height="20" as="geometry"/>
                </mxCell>
                <mxCell id="pXP7UlBF3ChyJRR3a8Z4-25" value="" style="whiteSpace=wrap;html=1;fillColor=#dae8fc;strokeColor=#6c8ebf;opacity=50;" parent="1" vertex="1">
                    <mxGeometry x="120" y="409.5" width="10" height="20" as="geometry"/>
                </mxCell>
                <mxCell id="pXP7UlBF3ChyJRR3a8Z4-26" value="" style="whiteSpace=wrap;html=1;fillColor=#dae8fc;strokeColor=#6c8ebf;opacity=50;" parent="1" vertex="1">
                    <mxGeometry x="130" y="409.5" width="10" height="20" as="geometry"/>
                </mxCell>
                <mxCell id="pXP7UlBF3ChyJRR3a8Z4-27" value="" style="whiteSpace=wrap;html=1;fillColor=#dae8fc;strokeColor=#6c8ebf;opacity=50;" parent="1" vertex="1">
                    <mxGeometry x="140" y="409.5" width="10" height="20" as="geometry"/>
                </mxCell>
                <mxCell id="pXP7UlBF3ChyJRR3a8Z4-28" value="" style="whiteSpace=wrap;html=1;fillColor=#dae8fc;strokeColor=#6c8ebf;opacity=50;" parent="1" vertex="1">
                    <mxGeometry x="150" y="409.5" width="10" height="20" as="geometry"/>
                </mxCell>
                <mxCell id="pXP7UlBF3ChyJRR3a8Z4-29" value="" style="whiteSpace=wrap;html=1;fillColor=#dae8fc;strokeColor=#6c8ebf;opacity=50;" parent="1" vertex="1">
                    <mxGeometry x="160" y="409.5" width="10" height="20" as="geometry"/>
                </mxCell>
                <mxCell id="pXP7UlBF3ChyJRR3a8Z4-30" value="" style="whiteSpace=wrap;html=1;fillColor=#dae8fc;strokeColor=#6c8ebf;opacity=50;" parent="1" vertex="1">
                    <mxGeometry x="170" y="409.5" width="10" height="20" as="geometry"/>
                </mxCell>
                <mxCell id="pXP7UlBF3ChyJRR3a8Z4-31" value="" style="whiteSpace=wrap;html=1;fillColor=#dae8fc;strokeColor=#6c8ebf;opacity=50;" parent="1" vertex="1">
                    <mxGeometry x="180" y="409.5" width="10" height="20" as="geometry"/>
                </mxCell>
                <mxCell id="pXP7UlBF3ChyJRR3a8Z4-32" value="" style="whiteSpace=wrap;html=1;fillColor=#dae8fc;strokeColor=#6c8ebf;opacity=50;" parent="1" vertex="1">
                    <mxGeometry x="190" y="409.5" width="10" height="20" as="geometry"/>
                </mxCell>
                <mxCell id="pXP7UlBF3ChyJRR3a8Z4-33" value="" style="whiteSpace=wrap;html=1;fillColor=#dae8fc;strokeColor=#6c8ebf;opacity=50;" parent="1" vertex="1">
                    <mxGeometry x="200" y="409.5" width="10" height="20" as="geometry"/>
                </mxCell>
                <mxCell id="pXP7UlBF3ChyJRR3a8Z4-34" value="" style="whiteSpace=wrap;html=1;fillColor=#dae8fc;strokeColor=#6c8ebf;opacity=50;" parent="1" vertex="1">
                    <mxGeometry x="210" y="409.5" width="10" height="20" as="geometry"/>
                </mxCell>
                <mxCell id="pXP7UlBF3ChyJRR3a8Z4-35" value="" style="whiteSpace=wrap;html=1;fillColor=#dae8fc;strokeColor=#6c8ebf;opacity=50;" parent="1" vertex="1">
                    <mxGeometry x="220" y="409.5" width="10" height="20" as="geometry"/>
                </mxCell>
                <mxCell id="pXP7UlBF3ChyJRR3a8Z4-36" value="" style="whiteSpace=wrap;html=1;fillColor=#dae8fc;strokeColor=#6c8ebf;opacity=50;" parent="1" vertex="1">
                    <mxGeometry x="230" y="409.5" width="10" height="20" as="geometry"/>
                </mxCell>
                <mxCell id="pXP7UlBF3ChyJRR3a8Z4-37" value="CTA's A tile: gA&lt;br&gt;((128, 8), k)" style="text;html=1;align=center;verticalAlign=middle;resizable=0;points=[];autosize=1;strokeColor=none;fillColor=none;fontSize=8;fontColor=#007FFF;" parent="1" vertex="1">
                    <mxGeometry y="404.5" width="80" height="30" as="geometry"/>
                </mxCell>
                <mxCell id="pXP7UlBF3ChyJRR3a8Z4-38" value="&lt;div style=&quot;text-align: left;&quot;&gt;&lt;span style=&quot;background-color: initial;&quot;&gt;((_, _), (blockIdx.x, _)) is used to index a tile in ((128, 8), (m, k)),&lt;/span&gt;&lt;/div&gt;&lt;div style=&quot;text-align: left;&quot;&gt;&lt;span style=&quot;background-color: initial;&quot;&gt;which is an entire row of mA&lt;/span&gt;&lt;/div&gt;" style="text;html=1;align=center;verticalAlign=middle;resizable=0;points=[];autosize=1;strokeColor=none;fillColor=none;fontSize=8;fontColor=#007FFF;" parent="1" vertex="1">
                    <mxGeometry x="260" y="450" width="250" height="30" as="geometry"/>
                </mxCell>
                <mxCell id="pXP7UlBF3ChyJRR3a8Z4-39" value="&lt;span style=&quot;color: rgb(26, 26, 26); font-family: &amp;quot;NVIDIA Sans&amp;quot;, &amp;quot;Helvetica Neue&amp;quot;, Helvetica, Roboto, &amp;quot;Droid Sans&amp;quot;, sans-serif; background-color: rgb(255, 255, 255);&quot;&gt;&lt;font style=&quot;font-size: 8px;&quot;&gt;Shared memory is allocated per thread block, &lt;br&gt;so all threads in the block have access to the same shared memory.&lt;/font&gt;&lt;/span&gt;" style="text;html=1;align=left;verticalAlign=middle;resizable=0;points=[];autosize=1;strokeColor=none;fillColor=none;fontSize=8;fontColor=#007FFF;" parent="1" vertex="1">
                    <mxGeometry x="35" y="570" width="260" height="30" as="geometry"/>
                </mxCell>
                <mxCell id="pXP7UlBF3ChyJRR3a8Z4-40" value="" style="endArrow=none;dashed=1;html=1;fontSize=8;fontColor=#007FFF;" parent="1" edge="1">
                    <mxGeometry width="50" height="50" relative="1" as="geometry">
                        <mxPoint x="20" y="310" as="sourcePoint"/>
                        <mxPoint x="330" y="310" as="targetPoint"/>
                    </mxGeometry>
                </mxCell>
                <mxCell id="pXP7UlBF3ChyJRR3a8Z4-41" value="" style="endArrow=none;dashed=1;html=1;fontSize=8;fontColor=#007FFF;" parent="1" edge="1">
                    <mxGeometry width="50" height="50" relative="1" as="geometry">
                        <mxPoint x="20.000000000000057" y="550" as="sourcePoint"/>
                        <mxPoint x="330" y="550" as="targetPoint"/>
                    </mxGeometry>
                </mxCell>
                <mxCell id="pXP7UlBF3ChyJRR3a8Z4-42" value="&lt;font color=&quot;#7f00ff&quot;&gt;smemA has the same size as select&amp;lt;0, 2&amp;gt;(cta_tiler) = (128, 8)&lt;/font&gt;" style="text;html=1;align=center;verticalAlign=middle;resizable=0;points=[];autosize=1;strokeColor=none;fillColor=none;fontSize=8;fontColor=#007FFF;" parent="1" vertex="1">
                    <mxGeometry x="25" y="640" width="240" height="20" as="geometry"/>
                </mxCell>
                <mxCell id="pXP7UlBF3ChyJRR3a8Z4-43" value="" style="whiteSpace=wrap;html=1;fillColor=#dae8fc;strokeColor=#6c8ebf;opacity=50;" parent="1" vertex="1">
                    <mxGeometry x="285" y="370" width="10" height="20" as="geometry"/>
                </mxCell>
                <mxCell id="pXP7UlBF3ChyJRR3a8Z4-44" value="&lt;font color=&quot;#007fff&quot;&gt;128&lt;/font&gt;" style="text;html=1;align=center;verticalAlign=middle;resizable=0;points=[];autosize=1;strokeColor=none;fillColor=none;fontSize=8;fontColor=#7F00FF;" parent="1" vertex="1">
                    <mxGeometry x="255" y="370" width="40" height="20" as="geometry"/>
                </mxCell>
                <mxCell id="pXP7UlBF3ChyJRR3a8Z4-45" value="&lt;font color=&quot;#007fff&quot;&gt;8&lt;/font&gt;" style="text;html=1;align=center;verticalAlign=middle;resizable=0;points=[];autosize=1;strokeColor=none;fillColor=none;fontSize=8;fontColor=#7F00FF;" parent="1" vertex="1">
                    <mxGeometry x="275" y="389.5" width="30" height="20" as="geometry"/>
                </mxCell>
                <mxCell id="pXP7UlBF3ChyJRR3a8Z4-46" value="" style="whiteSpace=wrap;html=1;fillColor=#dae8fc;strokeColor=#6c8ebf;opacity=50;" parent="1" vertex="1">
                    <mxGeometry x="60" y="679.5" width="10" height="20" as="geometry"/>
                </mxCell>
                <mxCell id="pXP7UlBF3ChyJRR3a8Z4-47" value="&lt;font color=&quot;#007fff&quot;&gt;8&lt;/font&gt;" style="text;html=1;align=center;verticalAlign=middle;resizable=0;points=[];autosize=1;strokeColor=none;fillColor=none;fontSize=8;fontColor=#7F00FF;" parent="1" vertex="1">
                    <mxGeometry x="50" y="699" width="30" height="20" as="geometry"/>
                </mxCell>
                <mxCell id="pXP7UlBF3ChyJRR3a8Z4-48" value="&lt;font color=&quot;#007fff&quot;&gt;128&lt;/font&gt;" style="text;html=1;align=center;verticalAlign=middle;resizable=0;points=[];autosize=1;strokeColor=none;fillColor=none;fontSize=8;fontColor=#7F00FF;" parent="1" vertex="1">
                    <mxGeometry x="20" y="679.5" width="40" height="20" as="geometry"/>
                </mxCell>
                <mxCell id="pXP7UlBF3ChyJRR3a8Z4-49" value="" style="whiteSpace=wrap;html=1;fillColor=#e1d5e7;strokeColor=#9673a6;opacity=50;" parent="1" vertex="1">
                    <mxGeometry x="205" y="679.5" width="10" height="20" as="geometry"/>
                </mxCell>
                <mxCell id="pXP7UlBF3ChyJRR3a8Z4-50" value="&lt;font color=&quot;#7f00ff&quot;&gt;128&lt;/font&gt;" style="text;html=1;align=center;verticalAlign=middle;resizable=0;points=[];autosize=1;strokeColor=none;fillColor=none;fontSize=8;fontColor=#007FFF;" parent="1" vertex="1">
                    <mxGeometry x="170" y="679" width="40" height="20" as="geometry"/>
                </mxCell>
                <mxCell id="pXP7UlBF3ChyJRR3a8Z4-53" value="8" style="text;html=1;align=center;verticalAlign=middle;resizable=0;points=[];autosize=1;strokeColor=none;fillColor=none;fontSize=8;fontColor=#7F00FF;" parent="1" vertex="1">
                    <mxGeometry x="195" y="699.5" width="30" height="20" as="geometry"/>
                </mxCell>
                <mxCell id="pXP7UlBF3ChyJRR3a8Z4-54" value="sA" style="text;html=1;align=center;verticalAlign=middle;resizable=0;points=[];autosize=1;strokeColor=none;fillColor=none;fontSize=8;fontColor=#7F00FF;" parent="1" vertex="1">
                    <mxGeometry x="195" y="719.5" width="30" height="20" as="geometry"/>
                </mxCell>
                <mxCell id="pXP7UlBF3ChyJRR3a8Z4-55" value="Copy partitioning&lt;br&gt;&lt;ul&gt;&lt;li&gt;Trival way to copy sA: use a single thread in the CTA to copy elements in sA one by one&lt;/li&gt;&lt;li&gt;Efficient way:&lt;/li&gt;&lt;/ul&gt;" style="text;html=1;align=left;verticalAlign=middle;resizable=0;points=[];autosize=1;strokeColor=none;fillColor=none;fontSize=8;fontColor=#7F00FF;" parent="1" vertex="1">
                    <mxGeometry x="40" y="760" width="370" height="70" as="geometry"/>
                </mxCell>
                <mxCell id="pXP7UlBF3ChyJRR3a8Z4-56" value="local_partition(gA, tA, threadIdx.x)&lt;br&gt;gA=(M, K):(1:K)&lt;br&gt;tA=(32, 8):(1:32)&lt;br&gt;&lt;br&gt;zipped_divide: ((32, 8), (THR_M, THR_K, k))" style="text;html=1;align=left;verticalAlign=middle;resizable=0;points=[];autosize=1;strokeColor=none;fillColor=none;fontSize=8;fontColor=#7F00FF;" parent="1" vertex="1">
                    <mxGeometry x="45" y="850" width="180" height="60" as="geometry"/>
                </mxCell>
                <mxCell id="pXP7UlBF3ChyJRR3a8Z4-57" value="&lt;span style=&quot;&quot;&gt;Compared to outer_partition, local_partition transforms the Idx into a Coord using the inverse of the Layout then use the Coord for outer_partition&lt;br&gt;See media/cute/03_tensor.md for detailed explainations&lt;br&gt;&lt;/span&gt;" style="text;html=1;align=left;verticalAlign=middle;resizable=0;points=[];autosize=1;strokeColor=none;fillColor=none;fontSize=8;fontColor=#7F00FF;" parent="1" vertex="1">
                    <mxGeometry x="45" y="930" width="540" height="30" as="geometry"/>
                </mxCell>
                <mxCell id="pXP7UlBF3ChyJRR3a8Z4-58" value="&lt;pre style=&quot;margin-top: 0px; background-color: var(--vscode-textCodeBlock-background); border: 1px solid var(--vscode-widget-border); padding: 16px; border-radius: 3px; overflow: auto; color: rgb(204, 204, 204); font-size: 14px; text-align: start;&quot;&gt;&lt;code style=&quot;font-family: var(--vscode-editor-font-family, &amp;quot;SF Mono&amp;quot;, Monaco, Menlo, Consolas, &amp;quot;Ubuntu Mono&amp;quot;, &amp;quot;Liberation Mono&amp;quot;, &amp;quot;DejaVu Sans Mono&amp;quot;, &amp;quot;Courier New&amp;quot;, monospace); background-image: none; background-position: initial; background-size: initial; background-repeat: initial; background-attachment: initial; background-origin: initial; background-clip: initial; font-size: 1em; line-height: 1.357em; display: inline-block; tab-size: 4; position: relative;&quot; dir=&quot;auto&quot; class=&quot;code-line language-cpp&quot; data-line=&quot;259&quot;&gt;  Tensor tAgA = &lt;span style=&quot;color: rgb(78, 201, 176);&quot; class=&quot;hljs-built_in&quot;&gt;local_partition&lt;/span&gt;(gA, tA, threadIdx.x);    &lt;span style=&quot;color: rgb(87, 166, 74); font-style: italic;&quot; class=&quot;hljs-comment&quot;&gt;// (THR_M,THR_K,k)&lt;/span&gt;&lt;br/&gt;  Tensor tAsA = &lt;span style=&quot;color: rgb(78, 201, 176);&quot; class=&quot;hljs-built_in&quot;&gt;local_partition&lt;/span&gt;(sA, tA, threadIdx.x);    &lt;span style=&quot;color: rgb(87, 166, 74); font-style: italic;&quot; class=&quot;hljs-comment&quot;&gt;// (THR_M,THR_K)&lt;/span&gt;&lt;/code&gt;&lt;/pre&gt;" style="text;html=1;align=center;verticalAlign=middle;resizable=0;points=[];autosize=1;strokeColor=none;fillColor=none;fontSize=8;fontColor=#7F00FF;" parent="1" vertex="1">
                    <mxGeometry x="25" y="980" width="630" height="100" as="geometry"/>
                </mxCell>
                <mxCell id="pXP7UlBF3ChyJRR3a8Z4-59" value="tAgA: &lt;font color=&quot;#007fff&quot;&gt;CTA tile gA &lt;/font&gt;is local-partitioned by tA, such that each thread in this CTA got a data tile of (THR_M, THR_K, k). The last dim k is temporal loop" style="text;html=1;align=center;verticalAlign=middle;resizable=0;points=[];autosize=1;strokeColor=none;fillColor=none;fontSize=8;fontColor=#7F00FF;" parent="1" vertex="1">
                    <mxGeometry x="40" y="1080" width="540" height="20" as="geometry"/>
                </mxCell>
                <mxCell id="pXP7UlBF3ChyJRR3a8Z4-60" value="&lt;font color=&quot;#00cc00&quot;&gt;CTA tile gC = (128, 128)&lt;/font&gt;" style="text;html=1;align=center;verticalAlign=middle;resizable=0;points=[];autosize=1;strokeColor=none;fillColor=none;fontSize=8;fontColor=#7F00FF;" parent="1" vertex="1">
                    <mxGeometry x="25" y="1190" width="110" height="20" as="geometry"/>
                </mxCell>
                <mxCell id="pXP7UlBF3ChyJRR3a8Z4-61" value="" style="endArrow=none;dashed=1;html=1;fontSize=8;fontColor=#007FFF;" parent="1" edge="1">
                    <mxGeometry width="50" height="50" relative="1" as="geometry">
                        <mxPoint x="25" y="1150.0000000000002" as="sourcePoint"/>
                        <mxPoint x="335" y="1150.0000000000002" as="targetPoint"/>
                    </mxGeometry>
                </mxCell>
                <mxCell id="pXP7UlBF3ChyJRR3a8Z4-62" value="Math partitioning" style="text;html=1;align=center;verticalAlign=middle;resizable=0;points=[];autosize=1;strokeColor=none;fillColor=none;fontSize=8;fontColor=#00CC00;" parent="1" vertex="1">
                    <mxGeometry x="25" y="1160" width="80" height="20" as="geometry"/>
                </mxCell>
                <mxCell id="pXP7UlBF3ChyJRR3a8Z4-63" value="tC = (16, 16)" style="text;html=1;align=center;verticalAlign=middle;resizable=0;points=[];autosize=1;strokeColor=none;fillColor=none;fontSize=8;fontColor=#00CC00;" parent="1" vertex="1">
                    <mxGeometry x="25" y="1210" width="70" height="20" as="geometry"/>
                </mxCell>
                <mxCell id="pXP7UlBF3ChyJRR3a8Z4-64" value="tCsA: smem &lt;font color=&quot;#7f00ff&quot;&gt;sA&lt;/font&gt; is local-partitioned by tC. Each thread get a tile in sA of shape (C_THR_M, BLK_K) = (8, 8)" style="text;html=1;align=center;verticalAlign=middle;resizable=0;points=[];autosize=1;strokeColor=none;fillColor=none;fontSize=8;fontColor=#00CC00;" parent="1" vertex="1">
                    <mxGeometry x="15" y="1230" width="400" height="20" as="geometry"/>
                </mxCell>
                <mxCell id="pXP7UlBF3ChyJRR3a8Z4-74" value="" style="whiteSpace=wrap;html=1;fillColor=#e1d5e7;strokeColor=#9673a6;opacity=50;" parent="1" vertex="1">
                    <mxGeometry x="60" y="1270" width="10" height="20" as="geometry"/>
                </mxCell>
                <mxCell id="pXP7UlBF3ChyJRR3a8Z4-75" value="&lt;font color=&quot;#7f00ff&quot;&gt;128&lt;/font&gt;" style="text;html=1;align=center;verticalAlign=middle;resizable=0;points=[];autosize=1;strokeColor=none;fillColor=none;fontSize=8;fontColor=#007FFF;" parent="1" vertex="1">
                    <mxGeometry x="20" y="1270" width="40" height="20" as="geometry"/>
                </mxCell>
                <mxCell id="pXP7UlBF3ChyJRR3a8Z4-76" value="8" style="text;html=1;align=center;verticalAlign=middle;resizable=0;points=[];autosize=1;strokeColor=none;fillColor=none;fontSize=8;fontColor=#7F00FF;" parent="1" vertex="1">
                    <mxGeometry x="50" y="1290" width="30" height="20" as="geometry"/>
                </mxCell>
                <mxCell id="pXP7UlBF3ChyJRR3a8Z4-77" value="sA" style="text;html=1;align=center;verticalAlign=middle;resizable=0;points=[];autosize=1;strokeColor=none;fillColor=none;fontSize=8;fontColor=#7F00FF;" parent="1" vertex="1">
                    <mxGeometry x="50" y="1310" width="30" height="20" as="geometry"/>
                </mxCell>
                <mxCell id="pXP7UlBF3ChyJRR3a8Z4-78" value="" style="whiteSpace=wrap;html=1;fillColor=#d5e8d4;strokeColor=#82b366;opacity=50;" parent="1" vertex="1">
                    <mxGeometry x="60" y="1270" width="10" height="5" as="geometry"/>
                </mxCell>
                <mxCell id="pXP7UlBF3ChyJRR3a8Z4-79" value="" style="whiteSpace=wrap;html=1;fillColor=#d5e8d4;strokeColor=#82b366;opacity=50;" parent="1" vertex="1">
                    <mxGeometry x="90" y="1270" width="10" height="5" as="geometry"/>
                </mxCell>
                <mxCell id="pXP7UlBF3ChyJRR3a8Z4-80" value="&lt;font color=&quot;#00cc00&quot;&gt;8&lt;/font&gt;" style="text;html=1;align=center;verticalAlign=middle;resizable=0;points=[];autosize=1;strokeColor=none;fillColor=none;fontSize=8;fontColor=#7F00FF;" parent="1" vertex="1">
                    <mxGeometry x="70" y="1260" width="25" height="25" as="geometry"/>
                </mxCell>
                <mxCell id="pXP7UlBF3ChyJRR3a8Z4-81" value="&lt;font color=&quot;#00cc00&quot;&gt;8&lt;/font&gt;" style="text;html=1;align=center;verticalAlign=middle;resizable=0;points=[];autosize=1;strokeColor=none;fillColor=none;fontSize=8;fontColor=#7F00FF;" parent="1" vertex="1">
                    <mxGeometry x="82.5" y="1250" width="25" height="25" as="geometry"/>
                </mxCell>
                <mxCell id="pXP7UlBF3ChyJRR3a8Z4-82" value="All threads with the same select&amp;lt;0&amp;gt;tC(threadIdx.x) will have the same tile from sA" style="text;html=1;align=center;verticalAlign=middle;resizable=0;points=[];autosize=1;strokeColor=none;fillColor=none;fontSize=8;fontColor=#00CC00;" parent="1" vertex="1">
                    <mxGeometry x="120" y="1285" width="310" height="20" as="geometry"/>
                </mxCell>
                <mxCell id="pXP7UlBF3ChyJRR3a8Z4-83" value="" style="rounded=0;whiteSpace=wrap;html=1;fontSize=8;opacity=50;" parent="1" vertex="1">
                    <mxGeometry x="40" y="1480" width="10" height="10" as="geometry"/>
                </mxCell>
                <mxCell id="pXP7UlBF3ChyJRR3a8Z4-84" value="" style="rounded=0;whiteSpace=wrap;html=1;fontSize=8;opacity=50;" parent="1" vertex="1">
                    <mxGeometry x="50" y="1480" width="10" height="10" as="geometry"/>
                </mxCell>
                <mxCell id="pXP7UlBF3ChyJRR3a8Z4-85" value="" style="rounded=0;whiteSpace=wrap;html=1;fontSize=8;opacity=50;" parent="1" vertex="1">
                    <mxGeometry x="40" y="1490" width="10" height="10" as="geometry"/>
                </mxCell>
                <mxCell id="pXP7UlBF3ChyJRR3a8Z4-86" value="" style="rounded=0;whiteSpace=wrap;html=1;fontSize=8;opacity=50;" parent="1" vertex="1">
                    <mxGeometry x="50" y="1490" width="10" height="10" as="geometry"/>
                </mxCell>
                <mxCell id="pXP7UlBF3ChyJRR3a8Z4-87" value="" style="rounded=0;whiteSpace=wrap;html=1;fontSize=8;opacity=50;strokeColor=#0000FF;fillColor=#0000FF;" parent="1" vertex="1">
                    <mxGeometry x="60" y="1480" width="10" height="10" as="geometry"/>
                </mxCell>
                <mxCell id="pXP7UlBF3ChyJRR3a8Z4-88" value="" style="rounded=0;whiteSpace=wrap;html=1;fontSize=8;opacity=50;" parent="1" vertex="1">
                    <mxGeometry x="70" y="1480" width="10" height="10" as="geometry"/>
                </mxCell>
                <mxCell id="pXP7UlBF3ChyJRR3a8Z4-89" value="" style="rounded=0;whiteSpace=wrap;html=1;fontSize=8;opacity=50;" parent="1" vertex="1">
                    <mxGeometry x="60" y="1490" width="10" height="10" as="geometry"/>
                </mxCell>
                <mxCell id="pXP7UlBF3ChyJRR3a8Z4-90" value="" style="rounded=0;whiteSpace=wrap;html=1;fontSize=8;opacity=50;" parent="1" vertex="1">
                    <mxGeometry x="70" y="1490" width="10" height="10" as="geometry"/>
                </mxCell>
                <mxCell id="pXP7UlBF3ChyJRR3a8Z4-91" value="" style="rounded=0;whiteSpace=wrap;html=1;fontSize=8;opacity=50;" parent="1" vertex="1">
                    <mxGeometry x="40" y="1500" width="10" height="10" as="geometry"/>
                </mxCell>
                <mxCell id="pXP7UlBF3ChyJRR3a8Z4-92" value="" style="rounded=0;whiteSpace=wrap;html=1;fontSize=8;opacity=50;" parent="1" vertex="1">
                    <mxGeometry x="50" y="1500" width="10" height="10" as="geometry"/>
                </mxCell>
                <mxCell id="pXP7UlBF3ChyJRR3a8Z4-93" value="" style="rounded=0;whiteSpace=wrap;html=1;fontSize=8;opacity=50;" parent="1" vertex="1">
                    <mxGeometry x="40" y="1510" width="10" height="10" as="geometry"/>
                </mxCell>
                <mxCell id="pXP7UlBF3ChyJRR3a8Z4-94" value="" style="rounded=0;whiteSpace=wrap;html=1;fontSize=8;opacity=50;" parent="1" vertex="1">
                    <mxGeometry x="50" y="1510" width="10" height="10" as="geometry"/>
                </mxCell>
                <mxCell id="pXP7UlBF3ChyJRR3a8Z4-95" value="" style="rounded=0;whiteSpace=wrap;html=1;fontSize=8;opacity=50;" parent="1" vertex="1">
                    <mxGeometry x="60" y="1500" width="10" height="10" as="geometry"/>
                </mxCell>
                <mxCell id="pXP7UlBF3ChyJRR3a8Z4-96" value="" style="rounded=0;whiteSpace=wrap;html=1;fontSize=8;opacity=50;" parent="1" vertex="1">
                    <mxGeometry x="70" y="1500" width="10" height="10" as="geometry"/>
                </mxCell>
                <mxCell id="pXP7UlBF3ChyJRR3a8Z4-97" value="" style="rounded=0;whiteSpace=wrap;html=1;fontSize=8;opacity=50;" parent="1" vertex="1">
                    <mxGeometry x="60" y="1510" width="10" height="10" as="geometry"/>
                </mxCell>
                <mxCell id="pXP7UlBF3ChyJRR3a8Z4-98" value="" style="rounded=0;whiteSpace=wrap;html=1;fontSize=8;opacity=50;" parent="1" vertex="1">
                    <mxGeometry x="70" y="1510" width="10" height="10" as="geometry"/>
                </mxCell>
                <mxCell id="pXP7UlBF3ChyJRR3a8Z4-99" value="tC" style="text;html=1;align=center;verticalAlign=middle;resizable=0;points=[];autosize=1;strokeColor=none;fillColor=none;fontSize=8;fontColor=#00CC00;" parent="1" vertex="1">
                    <mxGeometry x="45" y="1520" width="30" height="20" as="geometry"/>
                </mxCell>
                <mxCell id="pXP7UlBF3ChyJRR3a8Z4-100" value="threadIdx.x" style="text;html=1;align=center;verticalAlign=middle;resizable=0;points=[];autosize=1;strokeColor=none;fillColor=none;fontSize=8;fontColor=#00CC00;" parent="1" vertex="1">
                    <mxGeometry x="-40" y="1490" width="60" height="20" as="geometry"/>
                </mxCell>
                <mxCell id="pXP7UlBF3ChyJRR3a8Z4-101" value="" style="rounded=0;whiteSpace=wrap;html=1;fontSize=8;opacity=50;strokeColor=#0000FF;fillColor=#0000FF;" parent="1" vertex="1">
                    <mxGeometry x="20" y="1480" width="10" height="10" as="geometry"/>
                </mxCell>
                <mxCell id="pXP7UlBF3ChyJRR3a8Z4-102" value="" style="rounded=0;whiteSpace=wrap;html=1;fontSize=8;opacity=50;" parent="1" vertex="1">
                    <mxGeometry x="20" y="1490" width="10" height="10" as="geometry"/>
                </mxCell>
                <mxCell id="pXP7UlBF3ChyJRR3a8Z4-103" value="" style="rounded=0;whiteSpace=wrap;html=1;fontSize=8;opacity=50;" parent="1" vertex="1">
                    <mxGeometry x="20" y="1500" width="10" height="10" as="geometry"/>
                </mxCell>
                <mxCell id="pXP7UlBF3ChyJRR3a8Z4-104" value="" style="rounded=0;whiteSpace=wrap;html=1;fontSize=8;opacity=50;" parent="1" vertex="1">
                    <mxGeometry x="20" y="1510" width="10" height="10" as="geometry"/>
                </mxCell>
                <mxCell id="pXP7UlBF3ChyJRR3a8Z4-105" value="" style="rounded=0;whiteSpace=wrap;html=1;fontSize=8;opacity=50;" parent="1" vertex="1">
                    <mxGeometry x="40" y="1460" width="10" height="10" as="geometry"/>
                </mxCell>
                <mxCell id="pXP7UlBF3ChyJRR3a8Z4-106" value="" style="rounded=0;whiteSpace=wrap;html=1;fontSize=8;opacity=50;" parent="1" vertex="1">
                    <mxGeometry x="50" y="1460" width="10" height="10" as="geometry"/>
                </mxCell>
                <mxCell id="pXP7UlBF3ChyJRR3a8Z4-107" value="" style="rounded=0;whiteSpace=wrap;html=1;fontSize=8;opacity=50;strokeColor=#0000FF;fillColor=#0000FF;" parent="1" vertex="1">
                    <mxGeometry x="60" y="1460" width="10" height="10" as="geometry"/>
                </mxCell>
                <mxCell id="pXP7UlBF3ChyJRR3a8Z4-108" value="" style="rounded=0;whiteSpace=wrap;html=1;fontSize=8;opacity=50;" parent="1" vertex="1">
                    <mxGeometry x="70" y="1460" width="10" height="10" as="geometry"/>
                </mxCell>
                <mxCell id="pXP7UlBF3ChyJRR3a8Z4-109" value="threadIdx.y" style="text;html=1;align=center;verticalAlign=middle;resizable=0;points=[];autosize=1;strokeColor=none;fillColor=none;fontSize=8;fontColor=#00CC00;" parent="1" vertex="1">
                    <mxGeometry x="30" y="1440" width="60" height="20" as="geometry"/>
                </mxCell>
                <mxCell id="pXP7UlBF3ChyJRR3a8Z4-252" style="edgeStyle=none;html=1;exitX=0;exitY=0.5;exitDx=0;exitDy=0;entryX=0;entryY=0;entryDx=0;entryDy=0;fontSize=8;fontColor=#7F00FF;" parent="1" source="pXP7UlBF3ChyJRR3a8Z4-110" target="pXP7UlBF3ChyJRR3a8Z4-248" edge="1">
                    <mxGeometry relative="1" as="geometry">
                        <Array as="points">
                            <mxPoint x="-10" y="1640"/>
                        </Array>
                    </mxGeometry>
                </mxCell>
                <mxCell id="pXP7UlBF3ChyJRR3a8Z4-110" value="" style="rounded=0;whiteSpace=wrap;html=1;fontSize=8;opacity=50;fillColor=#0000FF;" parent="1" vertex="1">
                    <mxGeometry x="40" y="1560" width="10" height="10" as="geometry"/>
                </mxCell>
                <mxCell id="pXP7UlBF3ChyJRR3a8Z4-111" value="" style="rounded=0;whiteSpace=wrap;html=1;fontSize=8;opacity=50;fillColor=#0000FF;" parent="1" vertex="1">
                    <mxGeometry x="50" y="1560" width="10" height="10" as="geometry"/>
                </mxCell>
                <mxCell id="pXP7UlBF3ChyJRR3a8Z4-112" value="" style="rounded=0;whiteSpace=wrap;html=1;fontSize=8;opacity=50;" parent="1" vertex="1">
                    <mxGeometry x="40" y="1570" width="10" height="10" as="geometry"/>
                </mxCell>
                <mxCell id="pXP7UlBF3ChyJRR3a8Z4-113" value="" style="rounded=0;whiteSpace=wrap;html=1;fontSize=8;opacity=50;" parent="1" vertex="1">
                    <mxGeometry x="50" y="1570" width="10" height="10" as="geometry"/>
                </mxCell>
                <mxCell id="pXP7UlBF3ChyJRR3a8Z4-114" value="" style="rounded=0;whiteSpace=wrap;html=1;fontSize=8;opacity=50;fillColor=#0000FF;" parent="1" vertex="1">
                    <mxGeometry x="60" y="1560" width="10" height="10" as="geometry"/>
                </mxCell>
                <mxCell id="pXP7UlBF3ChyJRR3a8Z4-115" value="" style="rounded=0;whiteSpace=wrap;html=1;fontSize=8;opacity=50;fillColor=#0000FF;" parent="1" vertex="1">
                    <mxGeometry x="70" y="1560" width="10" height="10" as="geometry"/>
                </mxCell>
                <mxCell id="pXP7UlBF3ChyJRR3a8Z4-116" value="" style="rounded=0;whiteSpace=wrap;html=1;fontSize=8;opacity=50;" parent="1" vertex="1">
                    <mxGeometry x="60" y="1570" width="10" height="10" as="geometry"/>
                </mxCell>
                <mxCell id="pXP7UlBF3ChyJRR3a8Z4-117" value="" style="rounded=0;whiteSpace=wrap;html=1;fontSize=8;opacity=50;" parent="1" vertex="1">
                    <mxGeometry x="70" y="1570" width="10" height="10" as="geometry"/>
                </mxCell>
                <mxCell id="pXP7UlBF3ChyJRR3a8Z4-118" value="" style="rounded=0;whiteSpace=wrap;html=1;fontSize=8;opacity=50;" parent="1" vertex="1">
                    <mxGeometry x="40" y="1580" width="10" height="10" as="geometry"/>
                </mxCell>
                <mxCell id="pXP7UlBF3ChyJRR3a8Z4-119" value="" style="rounded=0;whiteSpace=wrap;html=1;fontSize=8;opacity=50;" parent="1" vertex="1">
                    <mxGeometry x="50" y="1580" width="10" height="10" as="geometry"/>
                </mxCell>
                <mxCell id="pXP7UlBF3ChyJRR3a8Z4-120" value="" style="rounded=0;whiteSpace=wrap;html=1;fontSize=8;opacity=50;" parent="1" vertex="1">
                    <mxGeometry x="40" y="1590" width="10" height="10" as="geometry"/>
                </mxCell>
                <mxCell id="pXP7UlBF3ChyJRR3a8Z4-121" value="" style="rounded=0;whiteSpace=wrap;html=1;fontSize=8;opacity=50;" parent="1" vertex="1">
                    <mxGeometry x="50" y="1590" width="10" height="10" as="geometry"/>
                </mxCell>
                <mxCell id="pXP7UlBF3ChyJRR3a8Z4-122" value="" style="rounded=0;whiteSpace=wrap;html=1;fontSize=8;opacity=50;" parent="1" vertex="1">
                    <mxGeometry x="60" y="1580" width="10" height="10" as="geometry"/>
                </mxCell>
                <mxCell id="pXP7UlBF3ChyJRR3a8Z4-123" value="" style="rounded=0;whiteSpace=wrap;html=1;fontSize=8;opacity=50;" parent="1" vertex="1">
                    <mxGeometry x="70" y="1580" width="10" height="10" as="geometry"/>
                </mxCell>
                <mxCell id="pXP7UlBF3ChyJRR3a8Z4-124" value="" style="rounded=0;whiteSpace=wrap;html=1;fontSize=8;opacity=50;" parent="1" vertex="1">
                    <mxGeometry x="60" y="1590" width="10" height="10" as="geometry"/>
                </mxCell>
                <mxCell id="pXP7UlBF3ChyJRR3a8Z4-125" value="" style="rounded=0;whiteSpace=wrap;html=1;fontSize=8;opacity=50;" parent="1" vertex="1">
                    <mxGeometry x="70" y="1590" width="10" height="10" as="geometry"/>
                </mxCell>
                <mxCell id="pXP7UlBF3ChyJRR3a8Z4-253" style="edgeStyle=none;html=1;exitX=0;exitY=0.5;exitDx=0;exitDy=0;entryX=0;entryY=0;entryDx=0;entryDy=0;fontSize=8;fontColor=#7F00FF;" parent="1" source="pXP7UlBF3ChyJRR3a8Z4-126" target="pXP7UlBF3ChyJRR3a8Z4-248" edge="1">
                    <mxGeometry relative="1" as="geometry">
                        <Array as="points">
                            <mxPoint y="1640"/>
                        </Array>
                    </mxGeometry>
                </mxCell>
                <mxCell id="pXP7UlBF3ChyJRR3a8Z4-126" value="" style="rounded=0;whiteSpace=wrap;html=1;fontSize=8;opacity=50;fillColor=#0000FF;" parent="1" vertex="1">
                    <mxGeometry x="40" y="1600" width="10" height="10" as="geometry"/>
                </mxCell>
                <mxCell id="pXP7UlBF3ChyJRR3a8Z4-127" value="" style="rounded=0;whiteSpace=wrap;html=1;fontSize=8;opacity=50;fillColor=#0000FF;" parent="1" vertex="1">
                    <mxGeometry x="50" y="1600" width="10" height="10" as="geometry"/>
                </mxCell>
                <mxCell id="pXP7UlBF3ChyJRR3a8Z4-128" value="" style="rounded=0;whiteSpace=wrap;html=1;fontSize=8;opacity=50;" parent="1" vertex="1">
                    <mxGeometry x="40" y="1610" width="10" height="10" as="geometry"/>
                </mxCell>
                <mxCell id="pXP7UlBF3ChyJRR3a8Z4-129" value="" style="rounded=0;whiteSpace=wrap;html=1;fontSize=8;opacity=50;" parent="1" vertex="1">
                    <mxGeometry x="50" y="1610" width="10" height="10" as="geometry"/>
                </mxCell>
                <mxCell id="pXP7UlBF3ChyJRR3a8Z4-130" value="" style="rounded=0;whiteSpace=wrap;html=1;fontSize=8;opacity=50;fillColor=#0000FF;" parent="1" vertex="1">
                    <mxGeometry x="60" y="1600" width="10" height="10" as="geometry"/>
                </mxCell>
                <mxCell id="pXP7UlBF3ChyJRR3a8Z4-131" value="" style="rounded=0;whiteSpace=wrap;html=1;fontSize=8;opacity=50;fillColor=#0000FF;" parent="1" vertex="1">
                    <mxGeometry x="70" y="1600" width="10" height="10" as="geometry"/>
                </mxCell>
                <mxCell id="pXP7UlBF3ChyJRR3a8Z4-132" value="" style="rounded=0;whiteSpace=wrap;html=1;fontSize=8;opacity=50;" parent="1" vertex="1">
                    <mxGeometry x="60" y="1610" width="10" height="10" as="geometry"/>
                </mxCell>
                <mxCell id="pXP7UlBF3ChyJRR3a8Z4-133" value="" style="rounded=0;whiteSpace=wrap;html=1;fontSize=8;opacity=50;" parent="1" vertex="1">
                    <mxGeometry x="70" y="1610" width="10" height="10" as="geometry"/>
                </mxCell>
                <mxCell id="pXP7UlBF3ChyJRR3a8Z4-134" value="" style="rounded=0;whiteSpace=wrap;html=1;fontSize=8;opacity=50;" parent="1" vertex="1">
                    <mxGeometry x="40" y="1620" width="10" height="10" as="geometry"/>
                </mxCell>
                <mxCell id="pXP7UlBF3ChyJRR3a8Z4-135" value="" style="rounded=0;whiteSpace=wrap;html=1;fontSize=8;opacity=50;" parent="1" vertex="1">
                    <mxGeometry x="50" y="1620" width="10" height="10" as="geometry"/>
                </mxCell>
                <mxCell id="pXP7UlBF3ChyJRR3a8Z4-136" value="" style="rounded=0;whiteSpace=wrap;html=1;fontSize=8;opacity=50;" parent="1" vertex="1">
                    <mxGeometry x="40" y="1630" width="10" height="10" as="geometry"/>
                </mxCell>
                <mxCell id="pXP7UlBF3ChyJRR3a8Z4-137" value="" style="rounded=0;whiteSpace=wrap;html=1;fontSize=8;opacity=50;" parent="1" vertex="1">
                    <mxGeometry x="50" y="1630" width="10" height="10" as="geometry"/>
                </mxCell>
                <mxCell id="pXP7UlBF3ChyJRR3a8Z4-138" value="" style="rounded=0;whiteSpace=wrap;html=1;fontSize=8;opacity=50;" parent="1" vertex="1">
                    <mxGeometry x="60" y="1620" width="10" height="10" as="geometry"/>
                </mxCell>
                <mxCell id="pXP7UlBF3ChyJRR3a8Z4-139" value="" style="rounded=0;whiteSpace=wrap;html=1;fontSize=8;opacity=50;" parent="1" vertex="1">
                    <mxGeometry x="70" y="1620" width="10" height="10" as="geometry"/>
                </mxCell>
                <mxCell id="pXP7UlBF3ChyJRR3a8Z4-140" value="" style="rounded=0;whiteSpace=wrap;html=1;fontSize=8;opacity=50;" parent="1" vertex="1">
                    <mxGeometry x="60" y="1630" width="10" height="10" as="geometry"/>
                </mxCell>
                <mxCell id="pXP7UlBF3ChyJRR3a8Z4-141" value="" style="rounded=0;whiteSpace=wrap;html=1;fontSize=8;opacity=50;" parent="1" vertex="1">
                    <mxGeometry x="70" y="1630" width="10" height="10" as="geometry"/>
                </mxCell>
                <mxCell id="pXP7UlBF3ChyJRR3a8Z4-142" value="" style="rounded=0;whiteSpace=wrap;html=1;fontSize=8;opacity=50;" parent="1" vertex="1">
                    <mxGeometry x="120" y="1480" width="10" height="10" as="geometry"/>
                </mxCell>
                <mxCell id="pXP7UlBF3ChyJRR3a8Z4-143" value="" style="rounded=0;whiteSpace=wrap;html=1;fontSize=8;opacity=50;" parent="1" vertex="1">
                    <mxGeometry x="130" y="1480" width="10" height="10" as="geometry"/>
                </mxCell>
                <mxCell id="pXP7UlBF3ChyJRR3a8Z4-144" value="" style="rounded=0;whiteSpace=wrap;html=1;fontSize=8;opacity=50;" parent="1" vertex="1">
                    <mxGeometry x="120" y="1490" width="10" height="10" as="geometry"/>
                </mxCell>
                <mxCell id="pXP7UlBF3ChyJRR3a8Z4-145" value="" style="rounded=0;whiteSpace=wrap;html=1;fontSize=8;opacity=50;" parent="1" vertex="1">
                    <mxGeometry x="130" y="1490" width="10" height="10" as="geometry"/>
                </mxCell>
                <mxCell id="pXP7UlBF3ChyJRR3a8Z4-146" value="" style="rounded=0;whiteSpace=wrap;html=1;fontSize=8;opacity=50;" parent="1" vertex="1">
                    <mxGeometry x="140" y="1480" width="10" height="10" as="geometry"/>
                </mxCell>
                <mxCell id="pXP7UlBF3ChyJRR3a8Z4-147" value="" style="rounded=0;whiteSpace=wrap;html=1;fontSize=8;opacity=50;" parent="1" vertex="1">
                    <mxGeometry x="150" y="1480" width="10" height="10" as="geometry"/>
                </mxCell>
                <mxCell id="pXP7UlBF3ChyJRR3a8Z4-148" value="" style="rounded=0;whiteSpace=wrap;html=1;fontSize=8;opacity=50;" parent="1" vertex="1">
                    <mxGeometry x="140" y="1490" width="10" height="10" as="geometry"/>
                </mxCell>
                <mxCell id="pXP7UlBF3ChyJRR3a8Z4-149" value="" style="rounded=0;whiteSpace=wrap;html=1;fontSize=8;opacity=50;" parent="1" vertex="1">
                    <mxGeometry x="150" y="1490" width="10" height="10" as="geometry"/>
                </mxCell>
                <mxCell id="pXP7UlBF3ChyJRR3a8Z4-150" value="" style="rounded=0;whiteSpace=wrap;html=1;fontSize=8;opacity=50;" parent="1" vertex="1">
                    <mxGeometry x="120" y="1500" width="10" height="10" as="geometry"/>
                </mxCell>
                <mxCell id="pXP7UlBF3ChyJRR3a8Z4-151" value="" style="rounded=0;whiteSpace=wrap;html=1;fontSize=8;opacity=50;" parent="1" vertex="1">
                    <mxGeometry x="130" y="1500" width="10" height="10" as="geometry"/>
                </mxCell>
                <mxCell id="pXP7UlBF3ChyJRR3a8Z4-152" value="" style="rounded=0;whiteSpace=wrap;html=1;fontSize=8;opacity=50;" parent="1" vertex="1">
                    <mxGeometry x="120" y="1510" width="10" height="10" as="geometry"/>
                </mxCell>
                <mxCell id="pXP7UlBF3ChyJRR3a8Z4-153" value="" style="rounded=0;whiteSpace=wrap;html=1;fontSize=8;opacity=50;" parent="1" vertex="1">
                    <mxGeometry x="130" y="1510" width="10" height="10" as="geometry"/>
                </mxCell>
                <mxCell id="pXP7UlBF3ChyJRR3a8Z4-154" value="" style="rounded=0;whiteSpace=wrap;html=1;fontSize=8;opacity=50;" parent="1" vertex="1">
                    <mxGeometry x="140" y="1500" width="10" height="10" as="geometry"/>
                </mxCell>
                <mxCell id="pXP7UlBF3ChyJRR3a8Z4-155" value="" style="rounded=0;whiteSpace=wrap;html=1;fontSize=8;opacity=50;" parent="1" vertex="1">
                    <mxGeometry x="150" y="1500" width="10" height="10" as="geometry"/>
                </mxCell>
                <mxCell id="pXP7UlBF3ChyJRR3a8Z4-156" value="" style="rounded=0;whiteSpace=wrap;html=1;fontSize=8;opacity=50;" parent="1" vertex="1">
                    <mxGeometry x="140" y="1510" width="10" height="10" as="geometry"/>
                </mxCell>
                <mxCell id="pXP7UlBF3ChyJRR3a8Z4-157" value="" style="rounded=0;whiteSpace=wrap;html=1;fontSize=8;opacity=50;" parent="1" vertex="1">
                    <mxGeometry x="150" y="1510" width="10" height="10" as="geometry"/>
                </mxCell>
                <mxCell id="pXP7UlBF3ChyJRR3a8Z4-158" value="" style="rounded=0;whiteSpace=wrap;html=1;fontSize=8;opacity=50;" parent="1" vertex="1">
                    <mxGeometry x="160" y="1480" width="10" height="10" as="geometry"/>
                </mxCell>
                <mxCell id="pXP7UlBF3ChyJRR3a8Z4-159" value="" style="rounded=0;whiteSpace=wrap;html=1;fontSize=8;opacity=50;" parent="1" vertex="1">
                    <mxGeometry x="170" y="1480" width="10" height="10" as="geometry"/>
                </mxCell>
                <mxCell id="pXP7UlBF3ChyJRR3a8Z4-160" value="" style="rounded=0;whiteSpace=wrap;html=1;fontSize=8;opacity=50;" parent="1" vertex="1">
                    <mxGeometry x="160" y="1490" width="10" height="10" as="geometry"/>
                </mxCell>
                <mxCell id="pXP7UlBF3ChyJRR3a8Z4-161" value="" style="rounded=0;whiteSpace=wrap;html=1;fontSize=8;opacity=50;" parent="1" vertex="1">
                    <mxGeometry x="170" y="1490" width="10" height="10" as="geometry"/>
                </mxCell>
                <mxCell id="pXP7UlBF3ChyJRR3a8Z4-162" value="" style="rounded=0;whiteSpace=wrap;html=1;fontSize=8;opacity=50;" parent="1" vertex="1">
                    <mxGeometry x="180" y="1480" width="10" height="10" as="geometry"/>
                </mxCell>
                <mxCell id="pXP7UlBF3ChyJRR3a8Z4-163" value="" style="rounded=0;whiteSpace=wrap;html=1;fontSize=8;opacity=50;" parent="1" vertex="1">
                    <mxGeometry x="190" y="1480" width="10" height="10" as="geometry"/>
                </mxCell>
                <mxCell id="pXP7UlBF3ChyJRR3a8Z4-164" value="" style="rounded=0;whiteSpace=wrap;html=1;fontSize=8;opacity=50;" parent="1" vertex="1">
                    <mxGeometry x="180" y="1490" width="10" height="10" as="geometry"/>
                </mxCell>
                <mxCell id="pXP7UlBF3ChyJRR3a8Z4-165" value="" style="rounded=0;whiteSpace=wrap;html=1;fontSize=8;opacity=50;" parent="1" vertex="1">
                    <mxGeometry x="190" y="1490" width="10" height="10" as="geometry"/>
                </mxCell>
                <mxCell id="pXP7UlBF3ChyJRR3a8Z4-166" value="" style="rounded=0;whiteSpace=wrap;html=1;fontSize=8;opacity=50;" parent="1" vertex="1">
                    <mxGeometry x="160" y="1500" width="10" height="10" as="geometry"/>
                </mxCell>
                <mxCell id="pXP7UlBF3ChyJRR3a8Z4-167" value="" style="rounded=0;whiteSpace=wrap;html=1;fontSize=8;opacity=50;" parent="1" vertex="1">
                    <mxGeometry x="170" y="1500" width="10" height="10" as="geometry"/>
                </mxCell>
                <mxCell id="pXP7UlBF3ChyJRR3a8Z4-168" value="" style="rounded=0;whiteSpace=wrap;html=1;fontSize=8;opacity=50;" parent="1" vertex="1">
                    <mxGeometry x="160" y="1510" width="10" height="10" as="geometry"/>
                </mxCell>
                <mxCell id="pXP7UlBF3ChyJRR3a8Z4-169" value="" style="rounded=0;whiteSpace=wrap;html=1;fontSize=8;opacity=50;" parent="1" vertex="1">
                    <mxGeometry x="170" y="1510" width="10" height="10" as="geometry"/>
                </mxCell>
                <mxCell id="pXP7UlBF3ChyJRR3a8Z4-170" value="" style="rounded=0;whiteSpace=wrap;html=1;fontSize=8;opacity=50;" parent="1" vertex="1">
                    <mxGeometry x="180" y="1500" width="10" height="10" as="geometry"/>
                </mxCell>
                <mxCell id="pXP7UlBF3ChyJRR3a8Z4-171" value="" style="rounded=0;whiteSpace=wrap;html=1;fontSize=8;opacity=50;" parent="1" vertex="1">
                    <mxGeometry x="190" y="1500" width="10" height="10" as="geometry"/>
                </mxCell>
                <mxCell id="pXP7UlBF3ChyJRR3a8Z4-172" value="" style="rounded=0;whiteSpace=wrap;html=1;fontSize=8;opacity=50;" parent="1" vertex="1">
                    <mxGeometry x="180" y="1510" width="10" height="10" as="geometry"/>
                </mxCell>
                <mxCell id="pXP7UlBF3ChyJRR3a8Z4-173" value="" style="rounded=0;whiteSpace=wrap;html=1;fontSize=8;opacity=50;" parent="1" vertex="1">
                    <mxGeometry x="190" y="1510" width="10" height="10" as="geometry"/>
                </mxCell>
                <mxCell id="pXP7UlBF3ChyJRR3a8Z4-174" value="" style="rounded=0;whiteSpace=wrap;html=1;fontSize=8;opacity=50;" parent="1" vertex="1">
                    <mxGeometry x="120" y="1560" width="10" height="10" as="geometry"/>
                </mxCell>
                <mxCell id="pXP7UlBF3ChyJRR3a8Z4-175" value="" style="rounded=0;whiteSpace=wrap;html=1;fontSize=8;opacity=50;" parent="1" vertex="1">
                    <mxGeometry x="130" y="1560" width="10" height="10" as="geometry"/>
                </mxCell>
                <mxCell id="pXP7UlBF3ChyJRR3a8Z4-176" value="" style="rounded=0;whiteSpace=wrap;html=1;fontSize=8;opacity=50;" parent="1" vertex="1">
                    <mxGeometry x="120" y="1570" width="10" height="10" as="geometry"/>
                </mxCell>
                <mxCell id="pXP7UlBF3ChyJRR3a8Z4-177" value="" style="rounded=0;whiteSpace=wrap;html=1;fontSize=8;opacity=50;" parent="1" vertex="1">
                    <mxGeometry x="130" y="1570" width="10" height="10" as="geometry"/>
                </mxCell>
                <mxCell id="pXP7UlBF3ChyJRR3a8Z4-178" value="" style="rounded=0;whiteSpace=wrap;html=1;fontSize=8;opacity=50;" parent="1" vertex="1">
                    <mxGeometry x="140" y="1560" width="10" height="10" as="geometry"/>
                </mxCell>
                <mxCell id="pXP7UlBF3ChyJRR3a8Z4-179" value="" style="rounded=0;whiteSpace=wrap;html=1;fontSize=8;opacity=50;" parent="1" vertex="1">
                    <mxGeometry x="150" y="1560" width="10" height="10" as="geometry"/>
                </mxCell>
                <mxCell id="pXP7UlBF3ChyJRR3a8Z4-180" value="" style="rounded=0;whiteSpace=wrap;html=1;fontSize=8;opacity=50;" parent="1" vertex="1">
                    <mxGeometry x="140" y="1570" width="10" height="10" as="geometry"/>
                </mxCell>
                <mxCell id="pXP7UlBF3ChyJRR3a8Z4-181" value="" style="rounded=0;whiteSpace=wrap;html=1;fontSize=8;opacity=50;" parent="1" vertex="1">
                    <mxGeometry x="150" y="1570" width="10" height="10" as="geometry"/>
                </mxCell>
                <mxCell id="pXP7UlBF3ChyJRR3a8Z4-182" value="" style="rounded=0;whiteSpace=wrap;html=1;fontSize=8;opacity=50;" parent="1" vertex="1">
                    <mxGeometry x="120" y="1580" width="10" height="10" as="geometry"/>
                </mxCell>
                <mxCell id="pXP7UlBF3ChyJRR3a8Z4-183" value="" style="rounded=0;whiteSpace=wrap;html=1;fontSize=8;opacity=50;" parent="1" vertex="1">
                    <mxGeometry x="130" y="1580" width="10" height="10" as="geometry"/>
                </mxCell>
                <mxCell id="pXP7UlBF3ChyJRR3a8Z4-184" value="" style="rounded=0;whiteSpace=wrap;html=1;fontSize=8;opacity=50;" parent="1" vertex="1">
                    <mxGeometry x="120" y="1590" width="10" height="10" as="geometry"/>
                </mxCell>
                <mxCell id="pXP7UlBF3ChyJRR3a8Z4-185" value="" style="rounded=0;whiteSpace=wrap;html=1;fontSize=8;opacity=50;" parent="1" vertex="1">
                    <mxGeometry x="130" y="1590" width="10" height="10" as="geometry"/>
                </mxCell>
                <mxCell id="pXP7UlBF3ChyJRR3a8Z4-186" value="" style="rounded=0;whiteSpace=wrap;html=1;fontSize=8;opacity=50;" parent="1" vertex="1">
                    <mxGeometry x="140" y="1580" width="10" height="10" as="geometry"/>
                </mxCell>
                <mxCell id="pXP7UlBF3ChyJRR3a8Z4-187" value="" style="rounded=0;whiteSpace=wrap;html=1;fontSize=8;opacity=50;" parent="1" vertex="1">
                    <mxGeometry x="150" y="1580" width="10" height="10" as="geometry"/>
                </mxCell>
                <mxCell id="pXP7UlBF3ChyJRR3a8Z4-188" value="" style="rounded=0;whiteSpace=wrap;html=1;fontSize=8;opacity=50;" parent="1" vertex="1">
                    <mxGeometry x="140" y="1590" width="10" height="10" as="geometry"/>
                </mxCell>
                <mxCell id="pXP7UlBF3ChyJRR3a8Z4-189" value="" style="rounded=0;whiteSpace=wrap;html=1;fontSize=8;opacity=50;" parent="1" vertex="1">
                    <mxGeometry x="150" y="1590" width="10" height="10" as="geometry"/>
                </mxCell>
                <mxCell id="pXP7UlBF3ChyJRR3a8Z4-190" value="" style="rounded=0;whiteSpace=wrap;html=1;fontSize=8;opacity=50;" parent="1" vertex="1">
                    <mxGeometry x="160" y="1560" width="10" height="10" as="geometry"/>
                </mxCell>
                <mxCell id="pXP7UlBF3ChyJRR3a8Z4-191" value="" style="rounded=0;whiteSpace=wrap;html=1;fontSize=8;opacity=50;" parent="1" vertex="1">
                    <mxGeometry x="170" y="1560" width="10" height="10" as="geometry"/>
                </mxCell>
                <mxCell id="pXP7UlBF3ChyJRR3a8Z4-192" value="" style="rounded=0;whiteSpace=wrap;html=1;fontSize=8;opacity=50;" parent="1" vertex="1">
                    <mxGeometry x="160" y="1570" width="10" height="10" as="geometry"/>
                </mxCell>
                <mxCell id="pXP7UlBF3ChyJRR3a8Z4-193" value="" style="rounded=0;whiteSpace=wrap;html=1;fontSize=8;opacity=50;" parent="1" vertex="1">
                    <mxGeometry x="170" y="1570" width="10" height="10" as="geometry"/>
                </mxCell>
                <mxCell id="pXP7UlBF3ChyJRR3a8Z4-194" value="" style="rounded=0;whiteSpace=wrap;html=1;fontSize=8;opacity=50;" parent="1" vertex="1">
                    <mxGeometry x="180" y="1560" width="10" height="10" as="geometry"/>
                </mxCell>
                <mxCell id="pXP7UlBF3ChyJRR3a8Z4-195" value="" style="rounded=0;whiteSpace=wrap;html=1;fontSize=8;opacity=50;" parent="1" vertex="1">
                    <mxGeometry x="190" y="1560" width="10" height="10" as="geometry"/>
                </mxCell>
                <mxCell id="pXP7UlBF3ChyJRR3a8Z4-196" value="" style="rounded=0;whiteSpace=wrap;html=1;fontSize=8;opacity=50;" parent="1" vertex="1">
                    <mxGeometry x="180" y="1570" width="10" height="10" as="geometry"/>
                </mxCell>
                <mxCell id="pXP7UlBF3ChyJRR3a8Z4-197" value="" style="rounded=0;whiteSpace=wrap;html=1;fontSize=8;opacity=50;" parent="1" vertex="1">
                    <mxGeometry x="190" y="1570" width="10" height="10" as="geometry"/>
                </mxCell>
                <mxCell id="pXP7UlBF3ChyJRR3a8Z4-198" value="" style="rounded=0;whiteSpace=wrap;html=1;fontSize=8;opacity=50;" parent="1" vertex="1">
                    <mxGeometry x="160" y="1580" width="10" height="10" as="geometry"/>
                </mxCell>
                <mxCell id="pXP7UlBF3ChyJRR3a8Z4-199" value="" style="rounded=0;whiteSpace=wrap;html=1;fontSize=8;opacity=50;" parent="1" vertex="1">
                    <mxGeometry x="170" y="1580" width="10" height="10" as="geometry"/>
                </mxCell>
                <mxCell id="pXP7UlBF3ChyJRR3a8Z4-200" value="" style="rounded=0;whiteSpace=wrap;html=1;fontSize=8;opacity=50;" parent="1" vertex="1">
                    <mxGeometry x="160" y="1590" width="10" height="10" as="geometry"/>
                </mxCell>
                <mxCell id="pXP7UlBF3ChyJRR3a8Z4-201" value="" style="rounded=0;whiteSpace=wrap;html=1;fontSize=8;opacity=50;" parent="1" vertex="1">
                    <mxGeometry x="170" y="1590" width="10" height="10" as="geometry"/>
                </mxCell>
                <mxCell id="pXP7UlBF3ChyJRR3a8Z4-202" value="" style="rounded=0;whiteSpace=wrap;html=1;fontSize=8;opacity=50;" parent="1" vertex="1">
                    <mxGeometry x="180" y="1580" width="10" height="10" as="geometry"/>
                </mxCell>
                <mxCell id="pXP7UlBF3ChyJRR3a8Z4-203" value="" style="rounded=0;whiteSpace=wrap;html=1;fontSize=8;opacity=50;" parent="1" vertex="1">
                    <mxGeometry x="190" y="1580" width="10" height="10" as="geometry"/>
                </mxCell>
                <mxCell id="pXP7UlBF3ChyJRR3a8Z4-204" value="" style="rounded=0;whiteSpace=wrap;html=1;fontSize=8;opacity=50;" parent="1" vertex="1">
                    <mxGeometry x="180" y="1590" width="10" height="10" as="geometry"/>
                </mxCell>
                <mxCell id="pXP7UlBF3ChyJRR3a8Z4-205" value="" style="rounded=0;whiteSpace=wrap;html=1;fontSize=8;opacity=50;" parent="1" vertex="1">
                    <mxGeometry x="190" y="1590" width="10" height="10" as="geometry"/>
                </mxCell>
                <mxCell id="pXP7UlBF3ChyJRR3a8Z4-206" value="" style="rounded=0;whiteSpace=wrap;html=1;fontSize=8;opacity=50;" parent="1" vertex="1">
                    <mxGeometry x="120" y="1600" width="10" height="10" as="geometry"/>
                </mxCell>
                <mxCell id="pXP7UlBF3ChyJRR3a8Z4-207" value="" style="rounded=0;whiteSpace=wrap;html=1;fontSize=8;opacity=50;" parent="1" vertex="1">
                    <mxGeometry x="130" y="1600" width="10" height="10" as="geometry"/>
                </mxCell>
                <mxCell id="pXP7UlBF3ChyJRR3a8Z4-208" value="" style="rounded=0;whiteSpace=wrap;html=1;fontSize=8;opacity=50;" parent="1" vertex="1">
                    <mxGeometry x="120" y="1610" width="10" height="10" as="geometry"/>
                </mxCell>
                <mxCell id="pXP7UlBF3ChyJRR3a8Z4-209" value="" style="rounded=0;whiteSpace=wrap;html=1;fontSize=8;opacity=50;" parent="1" vertex="1">
                    <mxGeometry x="130" y="1610" width="10" height="10" as="geometry"/>
                </mxCell>
                <mxCell id="pXP7UlBF3ChyJRR3a8Z4-210" value="" style="rounded=0;whiteSpace=wrap;html=1;fontSize=8;opacity=50;" parent="1" vertex="1">
                    <mxGeometry x="140" y="1600" width="10" height="10" as="geometry"/>
                </mxCell>
                <mxCell id="pXP7UlBF3ChyJRR3a8Z4-211" value="" style="rounded=0;whiteSpace=wrap;html=1;fontSize=8;opacity=50;" parent="1" vertex="1">
                    <mxGeometry x="150" y="1600" width="10" height="10" as="geometry"/>
                </mxCell>
                <mxCell id="pXP7UlBF3ChyJRR3a8Z4-212" value="" style="rounded=0;whiteSpace=wrap;html=1;fontSize=8;opacity=50;" parent="1" vertex="1">
                    <mxGeometry x="140" y="1610" width="10" height="10" as="geometry"/>
                </mxCell>
                <mxCell id="pXP7UlBF3ChyJRR3a8Z4-213" value="" style="rounded=0;whiteSpace=wrap;html=1;fontSize=8;opacity=50;" parent="1" vertex="1">
                    <mxGeometry x="150" y="1610" width="10" height="10" as="geometry"/>
                </mxCell>
                <mxCell id="pXP7UlBF3ChyJRR3a8Z4-214" value="" style="rounded=0;whiteSpace=wrap;html=1;fontSize=8;opacity=50;" parent="1" vertex="1">
                    <mxGeometry x="120" y="1620" width="10" height="10" as="geometry"/>
                </mxCell>
                <mxCell id="pXP7UlBF3ChyJRR3a8Z4-215" value="" style="rounded=0;whiteSpace=wrap;html=1;fontSize=8;opacity=50;" parent="1" vertex="1">
                    <mxGeometry x="130" y="1620" width="10" height="10" as="geometry"/>
                </mxCell>
                <mxCell id="pXP7UlBF3ChyJRR3a8Z4-216" value="" style="rounded=0;whiteSpace=wrap;html=1;fontSize=8;opacity=50;" parent="1" vertex="1">
                    <mxGeometry x="120" y="1630" width="10" height="10" as="geometry"/>
                </mxCell>
                <mxCell id="pXP7UlBF3ChyJRR3a8Z4-217" value="" style="rounded=0;whiteSpace=wrap;html=1;fontSize=8;opacity=50;" parent="1" vertex="1">
                    <mxGeometry x="130" y="1630" width="10" height="10" as="geometry"/>
                </mxCell>
                <mxCell id="pXP7UlBF3ChyJRR3a8Z4-218" value="" style="rounded=0;whiteSpace=wrap;html=1;fontSize=8;opacity=50;" parent="1" vertex="1">
                    <mxGeometry x="140" y="1620" width="10" height="10" as="geometry"/>
                </mxCell>
                <mxCell id="pXP7UlBF3ChyJRR3a8Z4-219" value="" style="rounded=0;whiteSpace=wrap;html=1;fontSize=8;opacity=50;" parent="1" vertex="1">
                    <mxGeometry x="150" y="1620" width="10" height="10" as="geometry"/>
                </mxCell>
                <mxCell id="pXP7UlBF3ChyJRR3a8Z4-220" value="" style="rounded=0;whiteSpace=wrap;html=1;fontSize=8;opacity=50;" parent="1" vertex="1">
                    <mxGeometry x="140" y="1630" width="10" height="10" as="geometry"/>
                </mxCell>
                <mxCell id="pXP7UlBF3ChyJRR3a8Z4-221" value="" style="rounded=0;whiteSpace=wrap;html=1;fontSize=8;opacity=50;" parent="1" vertex="1">
                    <mxGeometry x="150" y="1630" width="10" height="10" as="geometry"/>
                </mxCell>
                <mxCell id="pXP7UlBF3ChyJRR3a8Z4-222" value="" style="rounded=0;whiteSpace=wrap;html=1;fontSize=8;opacity=50;" parent="1" vertex="1">
                    <mxGeometry x="160" y="1600" width="10" height="10" as="geometry"/>
                </mxCell>
                <mxCell id="pXP7UlBF3ChyJRR3a8Z4-223" value="" style="rounded=0;whiteSpace=wrap;html=1;fontSize=8;opacity=50;" parent="1" vertex="1">
                    <mxGeometry x="170" y="1600" width="10" height="10" as="geometry"/>
                </mxCell>
                <mxCell id="pXP7UlBF3ChyJRR3a8Z4-224" value="" style="rounded=0;whiteSpace=wrap;html=1;fontSize=8;opacity=50;" parent="1" vertex="1">
                    <mxGeometry x="160" y="1610" width="10" height="10" as="geometry"/>
                </mxCell>
                <mxCell id="pXP7UlBF3ChyJRR3a8Z4-225" value="" style="rounded=0;whiteSpace=wrap;html=1;fontSize=8;opacity=50;" parent="1" vertex="1">
                    <mxGeometry x="170" y="1610" width="10" height="10" as="geometry"/>
                </mxCell>
                <mxCell id="pXP7UlBF3ChyJRR3a8Z4-226" value="" style="rounded=0;whiteSpace=wrap;html=1;fontSize=8;opacity=50;" parent="1" vertex="1">
                    <mxGeometry x="180" y="1600" width="10" height="10" as="geometry"/>
                </mxCell>
                <mxCell id="pXP7UlBF3ChyJRR3a8Z4-227" value="" style="rounded=0;whiteSpace=wrap;html=1;fontSize=8;opacity=50;" parent="1" vertex="1">
                    <mxGeometry x="190" y="1600" width="10" height="10" as="geometry"/>
                </mxCell>
                <mxCell id="pXP7UlBF3ChyJRR3a8Z4-228" value="" style="rounded=0;whiteSpace=wrap;html=1;fontSize=8;opacity=50;" parent="1" vertex="1">
                    <mxGeometry x="180" y="1610" width="10" height="10" as="geometry"/>
                </mxCell>
                <mxCell id="pXP7UlBF3ChyJRR3a8Z4-229" value="" style="rounded=0;whiteSpace=wrap;html=1;fontSize=8;opacity=50;" parent="1" vertex="1">
                    <mxGeometry x="190" y="1610" width="10" height="10" as="geometry"/>
                </mxCell>
                <mxCell id="pXP7UlBF3ChyJRR3a8Z4-230" value="" style="rounded=0;whiteSpace=wrap;html=1;fontSize=8;opacity=50;" parent="1" vertex="1">
                    <mxGeometry x="160" y="1620" width="10" height="10" as="geometry"/>
                </mxCell>
                <mxCell id="pXP7UlBF3ChyJRR3a8Z4-231" value="" style="rounded=0;whiteSpace=wrap;html=1;fontSize=8;opacity=50;" parent="1" vertex="1">
                    <mxGeometry x="170" y="1620" width="10" height="10" as="geometry"/>
                </mxCell>
                <mxCell id="pXP7UlBF3ChyJRR3a8Z4-232" value="" style="rounded=0;whiteSpace=wrap;html=1;fontSize=8;opacity=50;" parent="1" vertex="1">
                    <mxGeometry x="160" y="1630" width="10" height="10" as="geometry"/>
                </mxCell>
                <mxCell id="pXP7UlBF3ChyJRR3a8Z4-233" value="" style="rounded=0;whiteSpace=wrap;html=1;fontSize=8;opacity=50;" parent="1" vertex="1">
                    <mxGeometry x="170" y="1630" width="10" height="10" as="geometry"/>
                </mxCell>
                <mxCell id="pXP7UlBF3ChyJRR3a8Z4-234" value="" style="rounded=0;whiteSpace=wrap;html=1;fontSize=8;opacity=50;" parent="1" vertex="1">
                    <mxGeometry x="180" y="1620" width="10" height="10" as="geometry"/>
                </mxCell>
                <mxCell id="pXP7UlBF3ChyJRR3a8Z4-235" value="" style="rounded=0;whiteSpace=wrap;html=1;fontSize=8;opacity=50;" parent="1" vertex="1">
                    <mxGeometry x="190" y="1620" width="10" height="10" as="geometry"/>
                </mxCell>
                <mxCell id="pXP7UlBF3ChyJRR3a8Z4-236" value="" style="rounded=0;whiteSpace=wrap;html=1;fontSize=8;opacity=50;" parent="1" vertex="1">
                    <mxGeometry x="180" y="1630" width="10" height="10" as="geometry"/>
                </mxCell>
                <mxCell id="pXP7UlBF3ChyJRR3a8Z4-237" value="" style="rounded=0;whiteSpace=wrap;html=1;fontSize=8;opacity=50;" parent="1" vertex="1">
                    <mxGeometry x="190" y="1630" width="10" height="10" as="geometry"/>
                </mxCell>
                <mxCell id="pXP7UlBF3ChyJRR3a8Z4-238" value="&lt;font color=&quot;#7f00ff&quot;&gt;sA&lt;/font&gt;" style="text;html=1;align=center;verticalAlign=middle;resizable=0;points=[];autosize=1;strokeColor=none;fillColor=none;fontSize=8;fontColor=#00CC00;" parent="1" vertex="1">
                    <mxGeometry x="45" y="1640" width="30" height="20" as="geometry"/>
                </mxCell>
                <mxCell id="pXP7UlBF3ChyJRR3a8Z4-239" value="sB" style="text;html=1;align=center;verticalAlign=middle;resizable=0;points=[];autosize=1;strokeColor=none;fillColor=none;fontSize=8;fontColor=#7F00FF;" parent="1" vertex="1">
                    <mxGeometry x="145" y="1520" width="30" height="20" as="geometry"/>
                </mxCell>
                <mxCell id="pXP7UlBF3ChyJRR3a8Z4-240" value="gC" style="text;html=1;align=center;verticalAlign=middle;resizable=0;points=[];autosize=1;strokeColor=none;fillColor=none;fontSize=8;fontColor=#7F00FF;" parent="1" vertex="1">
                    <mxGeometry x="145" y="1640" width="30" height="20" as="geometry"/>
                </mxCell>
                <mxCell id="pXP7UlBF3ChyJRR3a8Z4-243" value="local_partition(sA, tC, threadIdx.x, Step&amp;lt;_1, X&amp;gt;{})&lt;br&gt;&lt;div style=&quot;&quot;&gt;&lt;span style=&quot;background-color: initial;&quot;&gt;&lt;br&gt;&lt;/span&gt;&lt;/div&gt;&lt;div style=&quot;&quot;&gt;&lt;span style=&quot;background-color: initial;&quot;&gt;tmp = zipped_divide(sA, select&amp;lt;0&amp;gt; tC) = ((16), (128//16, 8))&lt;br&gt;tmp( select&amp;lt;0&amp;gt;tC(threadIdx), (_, _) ) = (8, 8)&lt;/span&gt;&lt;/div&gt;&lt;div style=&quot;&quot;&gt;&lt;span style=&quot;background-color: initial;&quot;&gt;&lt;br&gt;&lt;/span&gt;&lt;/div&gt;" style="text;html=1;align=left;verticalAlign=middle;resizable=0;points=[];autosize=1;strokeColor=none;fillColor=none;fontSize=8;fontColor=#7F00FF;" parent="1" vertex="1">
                    <mxGeometry x="25" y="1350" width="230" height="60" as="geometry"/>
                </mxCell>
                <mxCell id="pXP7UlBF3ChyJRR3a8Z4-244" value="" style="rounded=0;whiteSpace=wrap;html=1;fontSize=8;opacity=50;fillColor=#0000FF;" parent="1" vertex="1">
                    <mxGeometry x="40" y="1690" width="10" height="10" as="geometry"/>
                </mxCell>
                <mxCell id="pXP7UlBF3ChyJRR3a8Z4-245" value="" style="rounded=0;whiteSpace=wrap;html=1;fontSize=8;opacity=50;fillColor=#0000FF;" parent="1" vertex="1">
                    <mxGeometry x="50" y="1690" width="10" height="10" as="geometry"/>
                </mxCell>
                <mxCell id="pXP7UlBF3ChyJRR3a8Z4-246" value="" style="rounded=0;whiteSpace=wrap;html=1;fontSize=8;opacity=50;fillColor=#0000FF;" parent="1" vertex="1">
                    <mxGeometry x="60" y="1690" width="10" height="10" as="geometry"/>
                </mxCell>
                <mxCell id="pXP7UlBF3ChyJRR3a8Z4-247" value="" style="rounded=0;whiteSpace=wrap;html=1;fontSize=8;opacity=50;fillColor=#0000FF;" parent="1" vertex="1">
                    <mxGeometry x="70" y="1690" width="10" height="10" as="geometry"/>
                </mxCell>
                <mxCell id="pXP7UlBF3ChyJRR3a8Z4-248" value="" style="rounded=0;whiteSpace=wrap;html=1;fontSize=8;opacity=50;fillColor=#0000FF;" parent="1" vertex="1">
                    <mxGeometry x="40" y="1700" width="10" height="10" as="geometry"/>
                </mxCell>
                <mxCell id="pXP7UlBF3ChyJRR3a8Z4-249" value="" style="rounded=0;whiteSpace=wrap;html=1;fontSize=8;opacity=50;fillColor=#0000FF;" parent="1" vertex="1">
                    <mxGeometry x="50" y="1700" width="10" height="10" as="geometry"/>
                </mxCell>
                <mxCell id="pXP7UlBF3ChyJRR3a8Z4-250" value="" style="rounded=0;whiteSpace=wrap;html=1;fontSize=8;opacity=50;fillColor=#0000FF;" parent="1" vertex="1">
                    <mxGeometry x="60" y="1700" width="10" height="10" as="geometry"/>
                </mxCell>
                <mxCell id="pXP7UlBF3ChyJRR3a8Z4-251" value="" style="rounded=0;whiteSpace=wrap;html=1;fontSize=8;opacity=50;fillColor=#0000FF;" parent="1" vertex="1">
                    <mxGeometry x="70" y="1700" width="10" height="10" as="geometry"/>
                </mxCell>
                <mxCell id="pXP7UlBF3ChyJRR3a8Z4-254" value="C_THR_M&lt;br&gt;(THR_M of tCsA comments in .md)" style="text;html=1;align=left;verticalAlign=middle;resizable=0;points=[];autosize=1;strokeColor=none;fillColor=none;fontSize=8;fontColor=#7F00FF;opacity=50;" parent="1" vertex="1">
                    <mxGeometry x="85" y="1683" width="150" height="30" as="geometry"/>
                </mxCell>
                <mxCell id="pXP7UlBF3ChyJRR3a8Z4-255" value="BLK_K" style="text;html=1;align=center;verticalAlign=middle;resizable=0;points=[];autosize=1;strokeColor=none;fillColor=none;fontSize=8;fontColor=#7F00FF;" parent="1" vertex="1">
                    <mxGeometry x="32.5" y="1670" width="50" height="20" as="geometry"/>
                </mxCell>
                <mxCell id="pXP7UlBF3ChyJRR3a8Z4-256" value="&lt;font color=&quot;#007fff&quot;&gt;gA&lt;/font&gt;" style="text;html=1;align=center;verticalAlign=middle;resizable=0;points=[];autosize=1;strokeColor=none;fillColor=none;fontSize=8;fontColor=#7F00FF;" parent="1" vertex="1">
                    <mxGeometry x="50" y="719.5" width="30" height="20" as="geometry"/>
                </mxCell>
            </root>
        </mxGraphModel>
    </diagram>
</mxfile>